<svg width="48" height="48" viewBox="0 0 48 48" fill="none" xmlns="http://www.w3.org/2000/svg">
<path d="M24 11.9034C24.6148 11.9034 25.1133 11.405 25.1133 10.7901V7.11328C25.1133 6.49845 24.6148 6 24 6C23.3852 6 22.8867 6.49845 22.8867 7.11328V10.7901C22.8867 11.405 23.3852 11.9034 24 11.9034Z" fill="white"/>
<path d="M29.1953 13.7929C29.4803 13.7929 29.7652 13.6842 29.9825 13.4668L32.9513 10.4981C33.386 10.0634 33.386 9.35845 32.9513 8.92368C32.5166 8.48898 31.8116 8.48898 31.3769 8.92368L28.4081 11.8924C27.9733 12.3271 27.9733 13.032 28.4081 13.4668C28.6255 13.6842 28.9104 13.7929 29.1953 13.7929Z" fill="white"/>
<path d="M18.0176 13.4668C18.2349 13.6842 18.5199 13.7929 18.8047 13.7929C19.0896 13.7929 19.3746 13.6842 19.5919 13.4668C20.0266 13.0321 20.0266 12.3272 19.5919 11.8924L16.6231 8.92368C16.1884 8.48898 15.4835 8.48898 15.0487 8.92368C14.614 9.35838 14.614 10.0633 15.0487 10.4981L18.0176 13.4668Z" fill="white"/>
<path d="M33.9994 21.7344L29.6778 17.4127C28.8426 16.5775 27.71 16.1084 26.5289 16.1084H19.7691C18.084 16.1084 16.4998 16.7646 15.3083 17.9561L14.9525 18.3119L14.9295 18.3349H6.11328C5.49845 18.3349 5 18.8333 5 19.4482V31.3231C5 31.938 5.49845 32.4364 6.11328 32.4364H11.6639L14.3066 35.079C14.5153 35.2878 14.7985 35.4052 15.0937 35.4052H16.1018C15.7287 34.8277 15.4885 34.1826 15.3945 33.5072C14.5622 33.2365 13.8132 32.7366 13.2364 32.0491C11.5595 30.0505 11.8211 27.0603 13.8196 25.3833L18.051 21.8329H26.4996C26.7948 21.8329 27.078 21.9501 27.2868 22.159L30.3951 25.2673C31.3935 26.2657 33.0488 26.287 34.03 25.2718C34.9832 24.2857 34.973 22.7079 33.9994 21.7344Z" fill="white"/>
<path d="M43 21.749C43 21.134 42.5015 20.6357 41.8867 20.6357H35.9888C37.4123 22.4965 37.2748 25.1764 35.5739 26.8775C34.6774 27.7739 33.4846 28.2675 32.2152 28.2675C30.9457 28.2675 29.7528 27.7739 28.8565 26.8775L26.0386 24.0595H18.6531L17.7785 24.7933L14.9542 27.1633C13.8944 28.0525 13.7562 29.6324 14.6454 30.6922C15.5346 31.752 17.1146 31.8902 18.1744 31.001C17.1146 31.8902 16.9764 33.4701 17.8656 34.5299C18.7548 35.5897 20.3348 35.7279 21.3945 34.8387C20.3348 35.7279 20.1966 37.3078 21.0858 38.3676C21.975 39.4274 23.555 39.5656 24.6147 38.6763L26.5864 37.0219L26.3204 37.2451C25.2607 38.1343 25.1225 39.7143 26.0117 40.7741C26.9009 41.8338 28.4809 41.972 29.5406 41.0828L37.1031 34.7371H41.8868C42.5016 34.7371 43.0001 34.2387 43 33.6238L43 21.749Z" fill="white"/>
</svg>
