<svg width="20" height="20" viewBox="0 0 20 20" fill="none" xmlns="http://www.w3.org/2000/svg">
<g clip-path="url(#clip0_161_5022)">
<path d="M18.2258 0.754639H1.77422C1.21072 0.754639 0.753906 1.21145 0.753906 1.77495V18.2265C0.753906 18.79 1.21072 19.2468 1.77422 19.2468H18.2258C18.7893 19.2468 19.2461 18.79 19.2461 18.2265V1.77495C19.2461 1.21145 18.7893 0.754639 18.2258 0.754639Z" fill="#3D5A98"/>
<path d="M13.5133 19.2453V12.0844H15.9164L16.2758 9.29378H13.5133V7.51253C13.5133 6.70472 13.7383 6.15316 14.8961 6.15316H16.3742V3.65316C15.6585 3.57856 14.9392 3.54309 14.2195 3.54691C12.0914 3.54691 10.6258 4.84378 10.6258 7.23597V9.29378H8.22266V12.0844H10.6258V19.2453H13.5133Z" fill="white"/>
</g>
<defs>
<clipPath id="clip0_161_5022">
<rect width="20" height="20" fill="white"/>
</clipPath>
</defs>
</svg>
