<svg width="20" height="20" viewBox="0 0 20 20" fill="none" xmlns="http://www.w3.org/2000/svg">
<path d="M15.4167 14.225V15.875C15.4167 15.9972 15.4625 16.1042 15.5542 16.1958C15.6458 16.2875 15.7528 16.3333 15.875 16.3333C15.9972 16.3333 16.1042 16.2875 16.1958 16.1958C16.2875 16.1042 16.3333 15.9972 16.3333 15.875V13.125C16.3333 13.0028 16.2875 12.8958 16.1958 12.8042C16.1042 12.7125 15.9972 12.6667 15.875 12.6667H13.125C13.0028 12.6667 12.8958 12.7125 12.8042 12.8042C12.7125 12.8958 12.6667 13.0028 12.6667 13.125C12.6667 13.2472 12.7125 13.3542 12.8042 13.4458C12.8958 13.5375 13.0028 13.5833 13.125 13.5833H14.775L12.5292 15.8292C12.4375 15.9208 12.3917 16.0278 12.3917 16.15C12.3917 16.2722 12.4375 16.3792 12.5292 16.4708C12.6208 16.5625 12.7278 16.6083 12.85 16.6083C12.9722 16.6083 13.0792 16.5625 13.1708 16.4708L15.4167 14.225ZM14.5 19.0833C13.2319 19.0833 12.1512 18.6363 11.2578 17.7423C10.3643 16.8482 9.91728 15.7674 9.91667 14.5C9.91667 13.2319 10.3637 12.1512 11.2578 11.2578C12.1518 10.3643 13.2326 9.91728 14.5 9.91667C15.7681 9.91667 16.8491 10.3637 17.7432 11.2578C18.6372 12.1518 19.0839 13.2326 19.0833 14.5C19.0833 15.7681 18.6363 16.8491 17.7423 17.7432C16.8482 18.6372 15.7674 19.0839 14.5 19.0833ZM5.33333 6.25H12.6667C12.9264 6.25 13.1442 6.162 13.3202 5.986C13.4963 5.81 13.5839 5.59244 13.5833 5.33333C13.5833 5.07361 13.4953 4.85606 13.3193 4.68067C13.1433 4.50528 12.9258 4.41728 12.6667 4.41667H5.33333C5.07361 4.41667 4.85606 4.50467 4.68067 4.68067C4.50528 4.85667 4.41728 5.07422 4.41667 5.33333C4.41667 5.59306 4.50467 5.81092 4.68067 5.98692C4.85667 6.16292 5.07422 6.25061 5.33333 6.25ZM8.70208 17.25H2.58333C2.07917 17.25 1.64772 17.0706 1.289 16.7119C0.930278 16.3532 0.750611 15.9214 0.75 15.4167V2.58333C0.75 2.07917 0.929667 1.64772 1.289 1.289C1.64833 0.930278 2.07978 0.750611 2.58333 0.75H15.4167C15.9208 0.75 16.3526 0.929667 16.7119 1.289C17.0713 1.64833 17.2506 2.07978 17.25 2.58333V8.725C16.8069 8.51111 16.3599 8.35069 15.9089 8.24375C15.4579 8.13681 14.9883 8.08333 14.5 8.08333C14.3319 8.08333 14.1752 8.087 14.0297 8.09433C13.8843 8.10167 13.7355 8.12092 13.5833 8.15208C13.4458 8.12153 13.2931 8.10258 13.125 8.09525C12.9569 8.08792 12.8042 8.08394 12.6667 8.08333H5.33333C5.07361 8.08333 4.85606 8.17133 4.68067 8.34733C4.50528 8.52333 4.41728 8.74089 4.41667 9C4.41667 9.25972 4.50467 9.47758 4.68067 9.65358C4.85667 9.82958 5.07422 9.91728 5.33333 9.91667H10.0312C9.75625 10.1764 9.50814 10.459 9.28692 10.7646C9.06569 11.0701 8.87075 11.3986 8.70208 11.75H5.33333C5.07361 11.75 4.85606 11.838 4.68067 12.014C4.50528 12.19 4.41728 12.4076 4.41667 12.6667C4.41667 12.9264 4.50467 13.1442 4.68067 13.3202C4.85667 13.4963 5.07422 13.5839 5.33333 13.5833H8.15208C8.12153 13.7361 8.10258 13.8852 8.09525 14.0307C8.08792 14.1761 8.08394 14.3326 8.08333 14.5C8.08333 15.0042 8.12917 15.4741 8.22083 15.9098C8.3125 16.3456 8.47292 16.7923 8.70208 17.25Z" fill="#41806D"/>
</svg>
