<svg width="20" height="20" viewBox="0 0 20 20" fill="none" xmlns="http://www.w3.org/2000/svg">
<g clip-path="url(#clip0_161_5044)">
<path d="M13.7367 9.97992L18.8625 5.52659V14.3824L13.7367 9.97992ZM7.13167 10.7341L8.93167 12.2966C9.21417 12.5366 9.5825 12.6816 9.985 12.6816H9.99917H10.01C10.4133 12.6816 10.7817 12.5358 11.0675 12.2941L11.065 12.2958L12.865 10.7333L18.3367 15.4324H1.6625L7.13167 10.7341ZM1.655 4.47075H18.3467L10.3292 11.4341C10.239 11.5054 10.1274 11.5441 10.0125 11.5441H10.0008H9.99C9.87466 11.5442 9.76269 11.5051 9.6725 11.4333L9.67333 11.4341L1.655 4.47075ZM1.1375 5.52575L6.2625 9.97909L1.1375 14.3791V5.52575ZM19.1375 3.49159C18.9375 3.39159 18.7025 3.33325 18.4533 3.33325H1.54917C1.30763 3.33331 1.06942 3.38951 0.853333 3.49742L0.8625 3.49325C0.603811 3.62084 0.385956 3.81823 0.233545 4.06312C0.0811339 4.30801 0.000239457 4.59064 0 4.87909L0 15.0224C0.00044117 15.4329 0.16371 15.8265 0.453984 16.1168C0.744257 16.407 1.13783 16.5703 1.54833 16.5708H18.4508C18.8613 16.5703 19.2549 16.407 19.5452 16.1168C19.8355 15.8265 19.9987 15.4329 19.9992 15.0224V4.87909C19.9992 4.27325 19.65 3.74825 19.1417 3.49575L19.1325 3.49159H19.1375Z" fill="#797979"/>
</g>
<defs>
<clipPath id="clip0_161_5044">
<rect width="20" height="20" fill="white"/>
</clipPath>
</defs>
</svg>
