<svg width="40" height="40" viewBox="0 0 40 40" fill="none" xmlns="http://www.w3.org/2000/svg">
<circle cx="20" cy="20" r="20" fill="#DCF7E1"/>
<g clip-path="url(#clip0_1_27560)">
<path d="M20 13.7204C20.3236 13.7204 20.5859 13.458 20.5859 13.1344V11.1992C20.5859 10.8756 20.3236 10.6133 20 10.6133C19.6764 10.6133 19.4141 10.8756 19.4141 11.1992V13.1344C19.4141 13.458 19.6764 13.7204 20 13.7204Z" fill="#41806D"/>
<path d="M22.7344 14.7148C22.8844 14.7148 23.0343 14.6576 23.1487 14.5432L24.7112 12.9807C24.94 12.7519 24.94 12.3809 24.7112 12.1521C24.4824 11.9233 24.1114 11.9233 23.8826 12.1521L22.3201 13.7146C22.0912 13.9433 22.0912 14.3144 22.3201 14.5432C22.4345 14.6576 22.5844 14.7148 22.7344 14.7148Z" fill="#41806D"/>
<path d="M16.8513 14.5432C16.9658 14.6576 17.1157 14.7148 17.2656 14.7148C17.4156 14.7148 17.5656 14.6576 17.6799 14.5432C17.9088 14.3144 17.9088 13.9434 17.6799 13.7146L16.1174 12.1521C15.8887 11.9233 15.5176 11.9233 15.2888 12.1521C15.06 12.3808 15.06 12.7519 15.2888 12.9807L16.8513 14.5432Z" fill="#41806D"/>
<path d="M25.2629 18.8946L22.9884 16.6201C22.5488 16.1805 21.9527 15.9336 21.331 15.9336H17.7732C16.8863 15.9336 16.0525 16.279 15.4254 16.9061L15.2382 17.0933L15.2261 17.1054H10.5859C10.2623 17.1054 10 17.3678 10 17.6914V23.9414C10 24.265 10.2623 24.5273 10.5859 24.5273H13.5073L14.8982 25.9182C15.0081 26.028 15.1571 26.0898 15.3125 26.0898H15.843C15.6467 25.7859 15.5203 25.4463 15.4708 25.0909C15.0327 24.9484 14.6386 24.6853 14.335 24.3235C13.4524 23.2716 13.5901 21.6978 14.6419 20.8152L16.8689 18.9465H21.3156C21.471 18.9465 21.62 19.0082 21.7299 19.1181L23.3659 20.7541C23.8914 21.2796 24.7625 21.2908 25.279 20.7564C25.7807 20.2374 25.7753 19.407 25.2629 18.8946Z" fill="#41806D"/>
<path d="M30 18.9023C30 18.5787 29.7377 18.3164 29.4141 18.3164H26.3099C27.0591 19.2957 26.9868 20.7063 26.0916 21.6015C25.6197 22.0733 24.9919 22.3331 24.3238 22.3331C23.6556 22.3331 23.0278 22.0733 22.5561 21.6015L21.073 20.1184H17.1858L16.7256 20.5046L15.239 21.752C14.6813 22.22 14.6085 23.0515 15.0765 23.6093C15.5445 24.1671 16.3761 24.2398 16.9339 23.7718C16.3761 24.2398 16.3034 25.0714 16.7714 25.6291C17.2394 26.1869 18.0709 26.2596 18.6287 25.7916C18.0709 26.2596 17.9982 27.0912 18.4662 27.649C18.9342 28.2068 19.7658 28.2795 20.3236 27.8115L21.3613 26.9407L21.2213 27.0582C20.6635 27.5262 20.5908 28.3578 21.0588 28.9155C21.5268 29.4733 22.3584 29.5461 22.9161 29.078L26.8964 25.7382H29.4141C29.7377 25.7382 30.0001 25.4759 30 25.1523L30 18.9023Z" fill="#41806D"/>
</g>
<defs>
<clipPath id="clip0_1_27560">
<rect width="20" height="20" fill="white" transform="translate(10 10)"/>
</clipPath>
</defs>
</svg>
