<svg width="1299" height="60" viewBox="0 0 1299 60" fill="none" xmlns="http://www.w3.org/2000/svg">
<path d="M630.103 59.5H321.013L343.397 30.3042L343.63 30L343.397 29.6958L321.013 0.5H630.103L652.374 30L630.103 59.5Z" fill="#41806D" stroke="#7DB398"/>
<path d="M950.103 59.5H641.013L663.397 30.3042L663.63 30L663.397 29.6958L641.013 0.5H950.103L972.374 30L950.103 59.5Z" fill="#DCF7E1" stroke="#7DB398"/>
<path d="M961 0.5H1298.5V59.5H961L982.9 30.3L983.125 30L982.9 29.7L961 0.5Z" fill="#F6F6F6" stroke="#E9E9E9"/>
<path d="M0.5 0.5H310.103L332.374 30L310.103 59.5H0.5V0.5Z" fill="#41806D" stroke="#7DB398"/>
<mask id="mask0_221_81" style="mask-type:luminance" maskUnits="userSpaceOnUse" x="23" y="17" width="27" height="27">
<path d="M36.5001 42.5833C38.0872 42.5854 39.6591 42.2737 41.1254 41.6664C42.5916 41.059 43.9234 40.1678 45.0442 39.0441C46.1679 37.9233 47.0591 36.5915 47.6665 35.1252C48.2739 33.6589 48.5855 32.0871 48.5834 30.5C48.5854 28.9129 48.2738 27.341 47.6664 25.8747C47.0591 24.4084 46.1679 23.0766 45.0442 21.9558C43.9234 20.8321 42.5916 19.9409 41.1254 19.3336C39.6591 18.7262 38.0872 18.4146 36.5001 18.4166C34.913 18.4146 33.3411 18.7262 31.8749 19.3336C30.4086 19.941 29.0768 20.8321 27.956 21.9558C26.8323 23.0766 25.9411 24.4084 25.3337 25.8747C24.7264 27.341 24.4147 28.9129 24.4168 30.5C24.4147 32.0871 24.7263 33.6589 25.3337 35.1252C25.9411 36.5915 26.8322 37.9233 27.956 39.0441C29.0768 40.1678 30.4086 41.0589 31.8749 41.6663C33.3411 42.2737 34.913 42.5853 36.5001 42.5833Z" fill="white" stroke="white" stroke-width="2.5" stroke-linejoin="round"/>
<path d="M31.6667 30.5L35.2917 34.125L42.5417 26.875" stroke="black" stroke-width="2.5" stroke-linecap="round" stroke-linejoin="round"/>
</mask>
<g mask="url(#mask0_221_81)">
<path d="M22 16H51V45H22V16Z" fill="white"/>
</g>
<path d="M73.264 24.88V32.896C73.264 33.888 72.96 34.672 72.352 35.248C71.7547 35.824 70.9653 36.112 69.984 36.112C69.0027 36.112 68.208 35.824 67.6 35.248C67.0027 34.672 66.704 33.888 66.704 32.896H68.544C68.5547 33.3867 68.6773 33.776 68.912 34.064C69.1573 34.352 69.5147 34.496 69.984 34.496C70.4533 34.496 70.8107 34.352 71.056 34.064C71.3013 33.7653 71.424 33.376 71.424 32.896V24.88H73.264ZM80.0553 36.144C79.2233 36.144 78.4713 35.9573 77.7993 35.584C77.1273 35.2 76.5993 34.6667 76.2153 33.984C75.8313 33.2907 75.6393 32.4907 75.6393 31.584C75.6393 30.688 75.8366 29.8933 76.2313 29.2C76.6259 28.5067 77.1646 27.9733 77.8473 27.6C78.5299 27.2267 79.2926 27.04 80.1353 27.04C80.9779 27.04 81.7406 27.2267 82.4233 27.6C83.1059 27.9733 83.6446 28.5067 84.0393 29.2C84.4339 29.8933 84.6313 30.688 84.6313 31.584C84.6313 32.48 84.4286 33.2747 84.0233 33.968C83.6179 34.6613 83.0633 35.2 82.3593 35.584C81.6659 35.9573 80.8979 36.144 80.0553 36.144ZM80.0553 34.56C80.5246 34.56 80.9619 34.448 81.3673 34.224C81.7833 34 82.1193 33.664 82.3753 33.216C82.6313 32.768 82.7593 32.224 82.7593 31.584C82.7593 30.944 82.6366 30.4053 82.3913 29.968C82.1459 29.52 81.8206 29.184 81.4153 28.96C81.0099 28.736 80.5726 28.624 80.1033 28.624C79.6339 28.624 79.1966 28.736 78.7913 28.96C78.3966 29.184 78.0819 29.52 77.8473 29.968C77.6126 30.4053 77.4953 30.944 77.4953 31.584C77.4953 32.5333 77.7353 33.2693 78.2153 33.792C78.7059 34.304 79.3193 34.56 80.0553 34.56ZM88.2584 28.496C88.5677 28.0693 88.989 27.7227 89.5224 27.456C90.0664 27.1787 90.669 27.04 91.3304 27.04C92.109 27.04 92.813 27.2267 93.4424 27.6C94.0717 27.9733 94.5677 28.5067 94.9304 29.2C95.293 29.8827 95.4744 30.6667 95.4744 31.552C95.4744 32.4373 95.293 33.232 94.9304 33.936C94.5677 34.6293 94.0664 35.1733 93.4264 35.568C92.797 35.952 92.0984 36.144 91.3304 36.144C90.6477 36.144 90.0397 36.0107 89.5064 35.744C88.9837 35.4773 88.5677 35.136 88.2584 34.72V36H86.4344V24.16H88.2584V28.496ZM93.6184 31.552C93.6184 30.944 93.4904 30.4213 93.2344 29.984C92.989 29.536 92.6584 29.2 92.2424 28.976C91.837 28.7413 91.3997 28.624 90.9304 28.624C90.4717 28.624 90.0344 28.7413 89.6184 28.976C89.213 29.2107 88.8824 29.552 88.6264 30C88.381 30.448 88.2584 30.976 88.2584 31.584C88.2584 32.192 88.381 32.7253 88.6264 33.184C88.8824 33.632 89.213 33.9733 89.6184 34.208C90.0344 34.4427 90.4717 34.56 90.9304 34.56C91.3997 34.56 91.837 34.4427 92.2424 34.208C92.6584 33.9627 92.989 33.6107 93.2344 33.152C93.4904 32.6933 93.6184 32.16 93.6184 31.552ZM105.066 24.88C106.25 24.88 107.285 25.1093 108.17 25.568C109.066 26.016 109.754 26.6667 110.234 27.52C110.725 28.3627 110.97 29.3493 110.97 30.48C110.97 31.6107 110.725 32.592 110.234 33.424C109.754 34.256 109.066 34.896 108.17 35.344C107.285 35.7813 106.25 36 105.066 36H101.434V24.88H105.066ZM105.066 34.512C106.368 34.512 107.365 34.16 108.058 33.456C108.752 32.752 109.098 31.76 109.098 30.48C109.098 29.1893 108.752 28.1813 108.058 27.456C107.365 26.7307 106.368 26.368 105.066 26.368H103.258V34.512H105.066ZM120.858 31.376C120.858 31.7067 120.837 32.0053 120.794 32.272H114.058C114.111 32.976 114.373 33.5413 114.842 33.968C115.311 34.3947 115.887 34.608 116.57 34.608C117.551 34.608 118.245 34.1973 118.65 33.376H120.618C120.351 34.1867 119.866 34.8533 119.162 35.376C118.469 35.888 117.605 36.144 116.57 36.144C115.727 36.144 114.97 35.9573 114.298 35.584C113.637 35.2 113.114 34.6667 112.73 33.984C112.357 33.2907 112.17 32.4907 112.17 31.584C112.17 30.6773 112.351 29.8827 112.714 29.2C113.087 28.5067 113.605 27.9733 114.266 27.6C114.938 27.2267 115.706 27.04 116.57 27.04C117.402 27.04 118.143 27.2213 118.794 27.584C119.445 27.9467 119.951 28.4587 120.314 29.12C120.677 29.7707 120.858 30.5227 120.858 31.376ZM118.954 30.8C118.943 30.128 118.703 29.5893 118.234 29.184C117.765 28.7787 117.183 28.576 116.49 28.576C115.861 28.576 115.322 28.7787 114.874 29.184C114.426 29.5787 114.159 30.1173 114.074 30.8H118.954ZM124.781 28.672V33.552C124.781 33.8827 124.856 34.1227 125.005 34.272C125.165 34.4107 125.432 34.48 125.805 34.48H126.925V36H125.485C124.664 36 124.034 35.808 123.597 35.424C123.16 35.04 122.941 34.416 122.941 33.552V28.672H121.901V27.184H122.941V24.992H124.781V27.184H126.925V28.672H124.781ZM127.998 31.552C127.998 30.6667 128.18 29.8827 128.542 29.2C128.916 28.5173 129.417 27.9893 130.046 27.616C130.686 27.232 131.39 27.04 132.158 27.04C132.852 27.04 133.454 27.1787 133.966 27.456C134.489 27.7227 134.905 28.0587 135.214 28.464V27.184H137.054V36H135.214V34.688C134.905 35.104 134.484 35.4507 133.95 35.728C133.417 36.0053 132.809 36.144 132.126 36.144C131.369 36.144 130.676 35.952 130.046 35.568C129.417 35.1733 128.916 34.6293 128.542 33.936C128.18 33.232 127.998 32.4373 127.998 31.552ZM135.214 31.584C135.214 30.976 135.086 30.448 134.83 30C134.585 29.552 134.26 29.2107 133.854 28.976C133.449 28.7413 133.012 28.624 132.542 28.624C132.073 28.624 131.636 28.7413 131.23 28.976C130.825 29.2 130.494 29.536 130.238 29.984C129.993 30.4213 129.87 30.944 129.87 31.552C129.87 32.16 129.993 32.6933 130.238 33.152C130.494 33.6107 130.825 33.9627 131.23 34.208C131.646 34.4427 132.084 34.56 132.542 34.56C133.012 34.56 133.449 34.4427 133.854 34.208C134.26 33.9733 134.585 33.632 134.83 33.184C135.086 32.7253 135.214 32.192 135.214 31.584ZM140.378 26.016C140.047 26.016 139.77 25.904 139.546 25.68C139.322 25.456 139.21 25.1787 139.21 24.848C139.21 24.5173 139.322 24.24 139.546 24.016C139.77 23.792 140.047 23.68 140.378 23.68C140.698 23.68 140.97 23.792 141.194 24.016C141.418 24.24 141.53 24.5173 141.53 24.848C141.53 25.1787 141.418 25.456 141.194 25.68C140.97 25.904 140.698 26.016 140.378 26.016ZM141.274 27.184V36H139.45V27.184H141.274ZM145.493 24.16V36H143.669V24.16H145.493ZM151.088 36.144C150.394 36.144 149.77 36.0213 149.216 35.776C148.672 35.52 148.24 35.1787 147.92 34.752C147.6 34.3147 147.429 33.8293 147.408 33.296H149.296C149.328 33.6693 149.504 33.984 149.824 34.24C150.154 34.4853 150.565 34.608 151.056 34.608C151.568 34.608 151.962 34.512 152.24 34.32C152.528 34.1173 152.672 33.8613 152.672 33.552C152.672 33.2213 152.512 32.976 152.192 32.816C151.882 32.656 151.386 32.48 150.704 32.288C150.042 32.1067 149.504 31.9307 149.088 31.76C148.672 31.5893 148.309 31.328 148 30.976C147.701 30.624 147.552 30.16 147.552 29.584C147.552 29.1147 147.69 28.688 147.968 28.304C148.245 27.9093 148.64 27.6 149.152 27.376C149.674 27.152 150.272 27.04 150.944 27.04C151.946 27.04 152.752 27.296 153.36 27.808C153.978 28.3093 154.309 28.9973 154.352 29.872H152.528C152.496 29.4773 152.336 29.1627 152.048 28.928C151.76 28.6933 151.37 28.576 150.88 28.576C150.4 28.576 150.032 28.6667 149.776 28.848C149.52 29.0293 149.392 29.2693 149.392 29.568C149.392 29.8027 149.477 30 149.648 30.16C149.818 30.32 150.026 30.448 150.272 30.544C150.517 30.6293 150.88 30.7413 151.36 30.88C152 31.0507 152.522 31.2267 152.928 31.408C153.344 31.5787 153.701 31.8347 154 32.176C154.298 32.5173 154.453 32.9707 154.464 33.536C154.464 34.0373 154.325 34.4853 154.048 34.88C153.77 35.2747 153.376 35.584 152.864 35.808C152.362 36.032 151.77 36.144 151.088 36.144Z" fill="white"/>
<mask id="mask1_221_81" style="mask-type:luminance" maskUnits="userSpaceOnUse" x="371" y="17" width="27" height="27">
<path d="M384.5 42.5833C386.087 42.5854 387.659 42.2737 389.125 41.6664C390.592 41.059 391.923 40.1678 393.044 39.0441C394.168 37.9233 395.059 36.5915 395.666 35.1252C396.274 33.6589 396.585 32.0871 396.583 30.5C396.585 28.9129 396.274 27.341 395.666 25.8747C395.059 24.4084 394.168 23.0766 393.044 21.9558C391.923 20.8321 390.592 19.9409 389.125 19.3336C387.659 18.7262 386.087 18.4146 384.5 18.4166C382.913 18.4146 381.341 18.7262 379.875 19.3336C378.409 19.941 377.077 20.8321 375.956 21.9558C374.832 23.0766 373.941 24.4084 373.334 25.8747C372.726 27.341 372.415 28.9129 372.417 30.5C372.415 32.0871 372.726 33.6589 373.334 35.1252C373.941 36.5915 374.832 37.9233 375.956 39.0441C377.077 40.1678 378.409 41.0589 379.875 41.6663C381.341 42.2737 382.913 42.5853 384.5 42.5833Z" fill="white" stroke="white" stroke-width="2.5" stroke-linejoin="round"/>
<path d="M379.667 30.5L383.292 34.125L390.542 26.875" stroke="black" stroke-width="2.5" stroke-linecap="round" stroke-linejoin="round"/>
</mask>
<g mask="url(#mask1_221_81)">
<path d="M370 16H399V45H370V16Z" fill="white"/>
</g>
<path d="M421.264 24.88V32.896C421.264 33.888 420.96 34.672 420.352 35.248C419.755 35.824 418.965 36.112 417.984 36.112C417.003 36.112 416.208 35.824 415.6 35.248C415.003 34.672 414.704 33.888 414.704 32.896H416.544C416.555 33.3867 416.677 33.776 416.912 34.064C417.157 34.352 417.515 34.496 417.984 34.496C418.453 34.496 418.811 34.352 419.056 34.064C419.301 33.7653 419.424 33.376 419.424 32.896V24.88H421.264ZM428.055 36.144C427.223 36.144 426.471 35.9573 425.799 35.584C425.127 35.2 424.599 34.6667 424.215 33.984C423.831 33.2907 423.639 32.4907 423.639 31.584C423.639 30.688 423.837 29.8933 424.231 29.2C424.626 28.5067 425.165 27.9733 425.847 27.6C426.53 27.2267 427.293 27.04 428.135 27.04C428.978 27.04 429.741 27.2267 430.423 27.6C431.106 27.9733 431.645 28.5067 432.039 29.2C432.434 29.8933 432.631 30.688 432.631 31.584C432.631 32.48 432.429 33.2747 432.023 33.968C431.618 34.6613 431.063 35.2 430.359 35.584C429.666 35.9573 428.898 36.144 428.055 36.144ZM428.055 34.56C428.525 34.56 428.962 34.448 429.367 34.224C429.783 34 430.119 33.664 430.375 33.216C430.631 32.768 430.759 32.224 430.759 31.584C430.759 30.944 430.637 30.4053 430.391 29.968C430.146 29.52 429.821 29.184 429.415 28.96C429.01 28.736 428.573 28.624 428.103 28.624C427.634 28.624 427.197 28.736 426.791 28.96C426.397 29.184 426.082 29.52 425.847 29.968C425.613 30.4053 425.495 30.944 425.495 31.584C425.495 32.5333 425.735 33.2693 426.215 33.792C426.706 34.304 427.319 34.56 428.055 34.56ZM436.258 28.496C436.568 28.0693 436.989 27.7227 437.522 27.456C438.066 27.1787 438.669 27.04 439.33 27.04C440.109 27.04 440.813 27.2267 441.442 27.6C442.072 27.9733 442.568 28.5067 442.93 29.2C443.293 29.8827 443.474 30.6667 443.474 31.552C443.474 32.4373 443.293 33.232 442.93 33.936C442.568 34.6293 442.066 35.1733 441.426 35.568C440.797 35.952 440.098 36.144 439.33 36.144C438.648 36.144 438.04 36.0107 437.506 35.744C436.984 35.4773 436.568 35.136 436.258 34.72V36H434.434V24.16H436.258V28.496ZM441.618 31.552C441.618 30.944 441.49 30.4213 441.234 29.984C440.989 29.536 440.658 29.2 440.242 28.976C439.837 28.7413 439.4 28.624 438.93 28.624C438.472 28.624 438.034 28.7413 437.618 28.976C437.213 29.2107 436.882 29.552 436.626 30C436.381 30.448 436.258 30.976 436.258 31.584C436.258 32.192 436.381 32.7253 436.626 33.184C436.882 33.632 437.213 33.9733 437.618 34.208C438.034 34.4427 438.472 34.56 438.93 34.56C439.4 34.56 439.837 34.4427 440.242 34.208C440.658 33.9627 440.989 33.6107 441.234 33.152C441.49 32.6933 441.618 32.16 441.618 31.552ZM453.066 24.88C454.25 24.88 455.285 25.1093 456.17 25.568C457.066 26.016 457.754 26.6667 458.234 27.52C458.725 28.3627 458.97 29.3493 458.97 30.48C458.97 31.6107 458.725 32.592 458.234 33.424C457.754 34.256 457.066 34.896 456.17 35.344C455.285 35.7813 454.25 36 453.066 36H449.434V24.88H453.066ZM453.066 34.512C454.368 34.512 455.365 34.16 456.058 33.456C456.752 32.752 457.098 31.76 457.098 30.48C457.098 29.1893 456.752 28.1813 456.058 27.456C455.365 26.7307 454.368 26.368 453.066 26.368H451.258V34.512H453.066ZM468.858 31.376C468.858 31.7067 468.837 32.0053 468.794 32.272H462.058C462.111 32.976 462.373 33.5413 462.842 33.968C463.311 34.3947 463.887 34.608 464.57 34.608C465.551 34.608 466.245 34.1973 466.65 33.376H468.618C468.351 34.1867 467.866 34.8533 467.162 35.376C466.469 35.888 465.605 36.144 464.57 36.144C463.727 36.144 462.97 35.9573 462.298 35.584C461.637 35.2 461.114 34.6667 460.73 33.984C460.357 33.2907 460.17 32.4907 460.17 31.584C460.17 30.6773 460.351 29.8827 460.714 29.2C461.087 28.5067 461.605 27.9733 462.266 27.6C462.938 27.2267 463.706 27.04 464.57 27.04C465.402 27.04 466.143 27.2213 466.794 27.584C467.445 27.9467 467.951 28.4587 468.314 29.12C468.677 29.7707 468.858 30.5227 468.858 31.376ZM466.954 30.8C466.943 30.128 466.703 29.5893 466.234 29.184C465.765 28.7787 465.183 28.576 464.49 28.576C463.861 28.576 463.322 28.7787 462.874 29.184C462.426 29.5787 462.159 30.1173 462.074 30.8H466.954ZM473.853 36.144C473.16 36.144 472.536 36.0213 471.981 35.776C471.437 35.52 471.005 35.1787 470.685 34.752C470.365 34.3147 470.194 33.8293 470.173 33.296H472.061C472.093 33.6693 472.269 33.984 472.589 34.24C472.92 34.4853 473.33 34.608 473.821 34.608C474.333 34.608 474.728 34.512 475.005 34.32C475.293 34.1173 475.437 33.8613 475.437 33.552C475.437 33.2213 475.277 32.976 474.957 32.816C474.648 32.656 474.152 32.48 473.469 32.288C472.808 32.1067 472.269 31.9307 471.853 31.76C471.437 31.5893 471.074 31.328 470.765 30.976C470.466 30.624 470.317 30.16 470.317 29.584C470.317 29.1147 470.456 28.688 470.733 28.304C471.01 27.9093 471.405 27.6 471.917 27.376C472.44 27.152 473.037 27.04 473.709 27.04C474.712 27.04 475.517 27.296 476.125 27.808C476.744 28.3093 477.074 28.9973 477.117 29.872H475.293C475.261 29.4773 475.101 29.1627 474.813 28.928C474.525 28.6933 474.136 28.576 473.645 28.576C473.165 28.576 472.797 28.6667 472.541 28.848C472.285 29.0293 472.157 29.2693 472.157 29.568C472.157 29.8027 472.242 30 472.413 30.16C472.584 30.32 472.792 30.448 473.037 30.544C473.282 30.6293 473.645 30.7413 474.125 30.88C474.765 31.0507 475.288 31.2267 475.693 31.408C476.109 31.5787 476.466 31.8347 476.765 32.176C477.064 32.5173 477.218 32.9707 477.229 33.536C477.229 34.0373 477.09 34.4853 476.813 34.88C476.536 35.2747 476.141 35.584 475.629 35.808C475.128 36.032 474.536 36.144 473.853 36.144ZM478.592 31.584C478.592 30.6773 478.773 29.8827 479.136 29.2C479.509 28.5067 480.021 27.9733 480.672 27.6C481.323 27.2267 482.069 27.04 482.912 27.04C483.979 27.04 484.859 27.296 485.552 27.808C486.256 28.3093 486.731 29.0293 486.976 29.968H485.008C484.848 29.5307 484.592 29.1893 484.24 28.944C483.888 28.6987 483.445 28.576 482.912 28.576C482.165 28.576 481.568 28.8427 481.12 29.376C480.683 29.8987 480.464 30.6347 480.464 31.584C480.464 32.5333 480.683 33.2747 481.12 33.808C481.568 34.3413 482.165 34.608 482.912 34.608C483.968 34.608 484.667 34.144 485.008 33.216H486.976C486.72 34.112 486.24 34.8267 485.536 35.36C484.832 35.8827 483.957 36.144 482.912 36.144C482.069 36.144 481.323 35.9573 480.672 35.584C480.021 35.2 479.509 34.6667 479.136 33.984C478.773 33.2907 478.592 32.4907 478.592 31.584ZM490.618 28.464C490.884 28.016 491.236 27.6693 491.674 27.424C492.122 27.168 492.65 27.04 493.258 27.04V28.928H492.794C492.079 28.928 491.535 29.1093 491.162 29.472C490.799 29.8347 490.618 30.464 490.618 31.36V36H488.794V27.184H490.618V28.464ZM495.862 26.016C495.532 26.016 495.254 25.904 495.03 25.68C494.806 25.456 494.694 25.1787 494.694 24.848C494.694 24.5173 494.806 24.24 495.03 24.016C495.254 23.792 495.532 23.68 495.862 23.68C496.182 23.68 496.454 23.792 496.678 24.016C496.902 24.24 497.014 24.5173 497.014 24.848C497.014 25.1787 496.902 25.456 496.678 25.68C496.454 25.904 496.182 26.016 495.862 26.016ZM496.758 27.184V36H494.934V27.184H496.758ZM500.977 28.48C501.286 28.0747 501.708 27.7333 502.241 27.456C502.774 27.1787 503.377 27.04 504.049 27.04C504.817 27.04 505.516 27.232 506.145 27.616C506.785 27.9893 507.286 28.5173 507.649 29.2C508.012 29.8827 508.193 30.6667 508.193 31.552C508.193 32.4373 508.012 33.232 507.649 33.936C507.286 34.6293 506.785 35.1733 506.145 35.568C505.516 35.952 504.817 36.144 504.049 36.144C503.377 36.144 502.78 36.0107 502.257 35.744C501.734 35.4667 501.308 35.1253 500.977 34.72V40.192H499.153V27.184H500.977V28.48ZM506.337 31.552C506.337 30.944 506.209 30.4213 505.953 29.984C505.708 29.536 505.377 29.2 504.961 28.976C504.556 28.7413 504.118 28.624 503.649 28.624C503.19 28.624 502.753 28.7413 502.337 28.976C501.932 29.2107 501.601 29.552 501.345 30C501.1 30.448 500.977 30.976 500.977 31.584C500.977 32.192 501.1 32.7253 501.345 33.184C501.601 33.632 501.932 33.9733 502.337 34.208C502.753 34.4427 503.19 34.56 503.649 34.56C504.118 34.56 504.556 34.4427 504.961 34.208C505.377 33.9627 505.708 33.6107 505.953 33.152C506.209 32.6933 506.337 32.16 506.337 31.552ZM512.125 28.672V33.552C512.125 33.8827 512.2 34.1227 512.349 34.272C512.509 34.4107 512.776 34.48 513.149 34.48H514.269V36H512.829C512.008 36 511.378 35.808 510.941 35.424C510.504 35.04 510.285 34.416 510.285 33.552V28.672H509.245V27.184H510.285V24.992H512.125V27.184H514.269V28.672H512.125ZM516.878 26.016C516.547 26.016 516.27 25.904 516.046 25.68C515.822 25.456 515.71 25.1787 515.71 24.848C515.71 24.5173 515.822 24.24 516.046 24.016C516.27 23.792 516.547 23.68 516.878 23.68C517.198 23.68 517.47 23.792 517.694 24.016C517.918 24.24 518.03 24.5173 518.03 24.848C518.03 25.1787 517.918 25.456 517.694 25.68C517.47 25.904 517.198 26.016 516.878 26.016ZM517.774 27.184V36H515.95V27.184H517.774ZM523.993 36.144C523.161 36.144 522.409 35.9573 521.737 35.584C521.065 35.2 520.537 34.6667 520.153 33.984C519.769 33.2907 519.577 32.4907 519.577 31.584C519.577 30.688 519.774 29.8933 520.169 29.2C520.563 28.5067 521.102 27.9733 521.785 27.6C522.467 27.2267 523.23 27.04 524.073 27.04C524.915 27.04 525.678 27.2267 526.361 27.6C527.043 27.9733 527.582 28.5067 527.977 29.2C528.371 29.8933 528.569 30.688 528.569 31.584C528.569 32.48 528.366 33.2747 527.961 33.968C527.555 34.6613 527.001 35.2 526.297 35.584C525.603 35.9573 524.835 36.144 523.993 36.144ZM523.993 34.56C524.462 34.56 524.899 34.448 525.305 34.224C525.721 34 526.057 33.664 526.313 33.216C526.569 32.768 526.697 32.224 526.697 31.584C526.697 30.944 526.574 30.4053 526.329 29.968C526.083 29.52 525.758 29.184 525.353 28.96C524.947 28.736 524.51 28.624 524.041 28.624C523.571 28.624 523.134 28.736 522.729 28.96C522.334 29.184 522.019 29.52 521.785 29.968C521.55 30.4053 521.433 30.944 521.433 31.584C521.433 32.5333 521.673 33.2693 522.153 33.792C522.643 34.304 523.257 34.56 523.993 34.56ZM534.82 27.04C535.513 27.04 536.132 27.184 536.676 27.472C537.231 27.76 537.663 28.1867 537.972 28.752C538.281 29.3173 538.436 30 538.436 30.8V36H536.628V31.072C536.628 30.2827 536.431 29.68 536.036 29.264C535.641 28.8373 535.103 28.624 534.42 28.624C533.737 28.624 533.193 28.8373 532.788 29.264C532.393 29.68 532.196 30.2827 532.196 31.072V36H530.372V27.184H532.196V28.192C532.495 27.8293 532.873 27.5467 533.332 27.344C533.801 27.1413 534.297 27.04 534.82 27.04Z" fill="white"/>
<rect x="690" y="16" width="29" height="29" rx="14.5" fill="#81B29A"/>
<path d="M701.156 27.314C701.212 26.446 701.543 25.7693 702.15 25.284C702.766 24.7987 703.55 24.556 704.502 24.556C705.155 24.556 705.72 24.6727 706.196 24.906C706.672 25.1393 707.031 25.4567 707.274 25.858C707.516 26.2593 707.638 26.712 707.638 27.216C707.638 27.7947 707.484 28.2893 707.176 28.7C706.868 29.1107 706.499 29.386 706.07 29.526V29.582C706.62 29.75 707.05 30.058 707.358 30.506C707.666 30.9447 707.82 31.5093 707.82 32.2C707.82 32.7507 707.694 33.2407 707.442 33.67C707.19 34.0993 706.816 34.44 706.322 34.692C705.827 34.9347 705.234 35.056 704.544 35.056C703.536 35.056 702.705 34.7993 702.052 34.286C701.408 33.7633 701.062 33.0167 701.016 32.046H702.556C702.593 32.5407 702.784 32.9467 703.13 33.264C703.475 33.572 703.942 33.726 704.53 33.726C705.099 33.726 705.538 33.572 705.846 33.264C706.154 32.9467 706.308 32.5407 706.308 32.046C706.308 31.3927 706.098 30.9307 705.678 30.66C705.267 30.38 704.632 30.24 703.774 30.24H703.41V28.924H703.788C704.544 28.9147 705.118 28.7887 705.51 28.546C705.911 28.3033 706.112 27.9207 706.112 27.398C706.112 26.95 705.967 26.5953 705.678 26.334C705.388 26.0633 704.978 25.928 704.446 25.928C703.923 25.928 703.517 26.0633 703.228 26.334C702.938 26.5953 702.766 26.922 702.71 27.314H701.156Z" fill="white"/>
<path d="M738.864 36.112C738.117 36.112 737.445 35.984 736.848 35.728C736.251 35.4613 735.781 35.088 735.44 34.608C735.099 34.128 734.928 33.568 734.928 32.928H736.88C736.923 33.408 737.109 33.8027 737.44 34.112C737.781 34.4213 738.256 34.576 738.864 34.576C739.493 34.576 739.984 34.4267 740.336 34.128C740.688 33.8187 740.864 33.424 740.864 32.944C740.864 32.5707 740.752 32.2667 740.528 32.032C740.315 31.7973 740.043 31.616 739.712 31.488C739.392 31.36 738.944 31.2213 738.368 31.072C737.643 30.88 737.051 30.688 736.592 30.496C736.144 30.2933 735.76 29.984 735.44 29.568C735.12 29.152 734.96 28.5973 734.96 27.904C734.96 27.264 735.12 26.704 735.44 26.224C735.76 25.744 736.208 25.376 736.784 25.12C737.36 24.864 738.027 24.736 738.784 24.736C739.861 24.736 740.741 25.008 741.424 25.552C742.117 26.0853 742.501 26.8213 742.576 27.76H740.56C740.528 27.3547 740.336 27.008 739.984 26.72C739.632 26.432 739.168 26.288 738.592 26.288C738.069 26.288 737.643 26.4213 737.312 26.688C736.981 26.9547 736.816 27.3387 736.816 27.84C736.816 28.1813 736.917 28.464 737.12 28.688C737.333 28.9013 737.6 29.072 737.92 29.2C738.24 29.328 738.677 29.4667 739.232 29.616C739.968 29.8187 740.565 30.0213 741.024 30.224C741.493 30.4267 741.888 30.7413 742.208 31.168C742.539 31.584 742.704 32.144 742.704 32.848C742.704 33.4133 742.549 33.9467 742.24 34.448C741.941 34.9493 741.499 35.3547 740.912 35.664C740.336 35.9627 739.653 36.112 738.864 36.112ZM752.936 31.376C752.936 31.7067 752.915 32.0053 752.872 32.272H746.136C746.19 32.976 746.451 33.5413 746.92 33.968C747.39 34.3947 747.966 34.608 748.648 34.608C749.63 34.608 750.323 34.1973 750.728 33.376H752.696C752.43 34.1867 751.944 34.8533 751.24 35.376C750.547 35.888 749.683 36.144 748.648 36.144C747.806 36.144 747.048 35.9573 746.376 35.584C745.715 35.2 745.192 34.6667 744.808 33.984C744.435 33.2907 744.248 32.4907 744.248 31.584C744.248 30.6773 744.43 29.8827 744.792 29.2C745.166 28.5067 745.683 27.9733 746.344 27.6C747.016 27.2267 747.784 27.04 748.648 27.04C749.48 27.04 750.222 27.2213 750.872 27.584C751.523 27.9467 752.03 28.4587 752.392 29.12C752.755 29.7707 752.936 30.5227 752.936 31.376ZM751.032 30.8C751.022 30.128 750.782 29.5893 750.312 29.184C749.843 28.7787 749.262 28.576 748.568 28.576C747.939 28.576 747.4 28.7787 746.952 29.184C746.504 29.5787 746.238 30.1173 746.152 30.8H751.032ZM756.859 28.672V33.552C756.859 33.8827 756.934 34.1227 757.083 34.272C757.243 34.4107 757.51 34.48 757.883 34.48H759.003V36H757.563C756.742 36 756.113 35.808 755.675 35.424C755.238 35.04 755.019 34.416 755.019 33.552V28.672H753.979V27.184H755.019V24.992H756.859V27.184H759.003V28.672H756.859ZM762.812 28.672V33.552C762.812 33.8827 762.887 34.1227 763.036 34.272C763.196 34.4107 763.463 34.48 763.836 34.48H764.956V36H763.516C762.695 36 762.066 35.808 761.628 35.424C761.191 35.04 760.972 34.416 760.972 33.552V28.672H759.932V27.184H760.972V24.992H762.812V27.184H764.956V28.672H762.812ZM767.566 26.016C767.235 26.016 766.958 25.904 766.734 25.68C766.51 25.456 766.398 25.1787 766.398 24.848C766.398 24.5173 766.51 24.24 766.734 24.016C766.958 23.792 767.235 23.68 767.566 23.68C767.886 23.68 768.158 23.792 768.382 24.016C768.606 24.24 768.718 24.5173 768.718 24.848C768.718 25.1787 768.606 25.456 768.382 25.68C768.158 25.904 767.886 26.016 767.566 26.016ZM768.462 27.184V36H766.638V27.184H768.462ZM775.304 27.04C775.998 27.04 776.616 27.184 777.16 27.472C777.715 27.76 778.147 28.1867 778.456 28.752C778.766 29.3173 778.92 30 778.92 30.8V36H777.112V31.072C777.112 30.2827 776.915 29.68 776.52 29.264C776.126 28.8373 775.587 28.624 774.904 28.624C774.222 28.624 773.678 28.8373 773.272 29.264C772.878 29.68 772.68 30.2827 772.68 31.072V36H770.856V27.184H772.68V28.192C772.979 27.8293 773.358 27.5467 773.816 27.344C774.286 27.1413 774.782 27.04 775.304 27.04ZM784.799 27.04C785.482 27.04 786.084 27.1787 786.607 27.456C787.14 27.7227 787.556 28.0587 787.855 28.464V27.184H789.695V36.144C789.695 36.9547 789.524 37.6747 789.183 38.304C788.842 38.944 788.346 39.4453 787.695 39.808C787.055 40.1707 786.287 40.352 785.391 40.352C784.196 40.352 783.204 40.0693 782.415 39.504C781.626 38.9493 781.178 38.192 781.071 37.232H782.879C783.018 37.6907 783.311 38.0587 783.759 38.336C784.218 38.624 784.762 38.768 785.391 38.768C786.127 38.768 786.719 38.544 787.167 38.096C787.626 37.648 787.855 36.9973 787.855 36.144V34.672C787.546 35.088 787.124 35.44 786.591 35.728C786.068 36.0053 785.471 36.144 784.799 36.144C784.031 36.144 783.327 35.952 782.687 35.568C782.058 35.1733 781.556 34.6293 781.183 33.936C780.82 33.232 780.639 32.4373 780.639 31.552C780.639 30.6667 780.82 29.8827 781.183 29.2C781.556 28.5173 782.058 27.9893 782.687 27.616C783.327 27.232 784.031 27.04 784.799 27.04ZM787.855 31.584C787.855 30.976 787.727 30.448 787.471 30C787.226 29.552 786.9 29.2107 786.495 28.976C786.09 28.7413 785.652 28.624 785.183 28.624C784.714 28.624 784.276 28.7413 783.871 28.976C783.466 29.2 783.135 29.536 782.879 29.984C782.634 30.4213 782.511 30.944 782.511 31.552C782.511 32.16 782.634 32.6933 782.879 33.152C783.135 33.6107 783.466 33.9627 783.871 34.208C784.287 34.4427 784.724 34.56 785.183 34.56C785.652 34.56 786.09 34.4427 786.495 34.208C786.9 33.9733 787.226 33.632 787.471 33.184C787.727 32.7253 787.855 32.192 787.855 31.584ZM799.879 24.88C801.063 24.88 802.098 25.1093 802.983 25.568C803.879 26.016 804.567 26.6667 805.047 27.52C805.538 28.3627 805.783 29.3493 805.783 30.48C805.783 31.6107 805.538 32.592 805.047 33.424C804.567 34.256 803.879 34.896 802.983 35.344C802.098 35.7813 801.063 36 799.879 36H796.247V24.88H799.879ZM799.879 34.512C801.18 34.512 802.178 34.16 802.871 33.456C803.564 32.752 803.911 31.76 803.911 30.48C803.911 29.1893 803.564 28.1813 802.871 27.456C802.178 26.7307 801.18 26.368 799.879 26.368H798.071V34.512H799.879ZM806.983 31.552C806.983 30.6667 807.164 29.8827 807.527 29.2C807.9 28.5173 808.401 27.9893 809.031 27.616C809.671 27.232 810.375 27.04 811.143 27.04C811.836 27.04 812.439 27.1787 812.951 27.456C813.473 27.7227 813.889 28.0587 814.199 28.464V27.184H816.039V36H814.199V34.688C813.889 35.104 813.468 35.4507 812.935 35.728C812.401 36.0053 811.793 36.144 811.111 36.144C810.353 36.144 809.66 35.952 809.031 35.568C808.401 35.1733 807.9 34.6293 807.527 33.936C807.164 33.232 806.983 32.4373 806.983 31.552ZM814.199 31.584C814.199 30.976 814.071 30.448 813.815 30C813.569 29.552 813.244 29.2107 812.839 28.976C812.433 28.7413 811.996 28.624 811.527 28.624C811.057 28.624 810.62 28.7413 810.215 28.976C809.809 29.2 809.479 29.536 809.223 29.984C808.977 30.4213 808.855 30.944 808.855 31.552C808.855 32.16 808.977 32.6933 809.223 33.152C809.479 33.6107 809.809 33.9627 810.215 34.208C810.631 34.4427 811.068 34.56 811.527 34.56C811.996 34.56 812.433 34.4427 812.839 34.208C813.244 33.9733 813.569 33.632 813.815 33.184C814.071 32.7253 814.199 32.192 814.199 31.584ZM820.562 28.672V33.552C820.562 33.8827 820.637 34.1227 820.786 34.272C820.946 34.4107 821.213 34.48 821.586 34.48H822.706V36H821.266C820.445 36 819.816 35.808 819.378 35.424C818.941 35.04 818.722 34.416 818.722 33.552V28.672H817.682V27.184H818.722V24.992H820.562V27.184H822.706V28.672H820.562ZM823.78 31.552C823.78 30.6667 823.961 29.8827 824.324 29.2C824.697 28.5173 825.198 27.9893 825.828 27.616C826.468 27.232 827.172 27.04 827.94 27.04C828.633 27.04 829.236 27.1787 829.748 27.456C830.27 27.7227 830.686 28.0587 830.996 28.464V27.184H832.836V36H830.996V34.688C830.686 35.104 830.265 35.4507 829.732 35.728C829.198 36.0053 828.59 36.144 827.908 36.144C827.15 36.144 826.457 35.952 825.828 35.568C825.198 35.1733 824.697 34.6293 824.324 33.936C823.961 33.232 823.78 32.4373 823.78 31.552ZM830.996 31.584C830.996 30.976 830.868 30.448 830.612 30C830.366 29.552 830.041 29.2107 829.636 28.976C829.23 28.7413 828.793 28.624 828.324 28.624C827.854 28.624 827.417 28.7413 827.012 28.976C826.606 29.2 826.276 29.536 826.02 29.984C825.774 30.4213 825.652 30.944 825.652 31.552C825.652 32.16 825.774 32.6933 826.02 33.152C826.276 33.6107 826.606 33.9627 827.012 34.208C827.428 34.4427 827.865 34.56 828.324 34.56C828.793 34.56 829.23 34.4427 829.636 34.208C830.041 33.9733 830.366 33.632 830.612 33.184C830.868 32.7253 830.996 32.192 830.996 31.584ZM846.092 33.728H841.436L840.636 36H838.732L842.716 24.864H844.828L848.812 36H846.892L846.092 33.728ZM845.58 32.24L843.772 27.072L841.948 32.24H845.58ZM852.368 28.48C852.677 28.0747 853.098 27.7333 853.632 27.456C854.165 27.1787 854.768 27.04 855.44 27.04C856.208 27.04 856.906 27.232 857.536 27.616C858.176 27.9893 858.677 28.5173 859.04 29.2C859.402 29.8827 859.584 30.6667 859.584 31.552C859.584 32.4373 859.402 33.232 859.04 33.936C858.677 34.6293 858.176 35.1733 857.536 35.568C856.906 35.952 856.208 36.144 855.44 36.144C854.768 36.144 854.17 36.0107 853.648 35.744C853.125 35.4667 852.698 35.1253 852.368 34.72V40.192H850.544V27.184H852.368V28.48ZM857.728 31.552C857.728 30.944 857.6 30.4213 857.344 29.984C857.098 29.536 856.768 29.2 856.352 28.976C855.946 28.7413 855.509 28.624 855.04 28.624C854.581 28.624 854.144 28.7413 853.728 28.976C853.322 29.2107 852.992 29.552 852.736 30C852.49 30.448 852.368 30.976 852.368 31.584C852.368 32.192 852.49 32.7253 852.736 33.184C852.992 33.632 853.322 33.9733 853.728 34.208C854.144 34.4427 854.581 34.56 855.04 34.56C855.509 34.56 855.946 34.4427 856.352 34.208C856.768 33.9627 857.098 33.6107 857.344 33.152C857.6 32.6933 857.728 32.16 857.728 31.552ZM863.212 28.48C863.521 28.0747 863.942 27.7333 864.476 27.456C865.009 27.1787 865.612 27.04 866.284 27.04C867.052 27.04 867.75 27.232 868.38 27.616C869.02 27.9893 869.521 28.5173 869.884 29.2C870.246 29.8827 870.428 30.6667 870.428 31.552C870.428 32.4373 870.246 33.232 869.884 33.936C869.521 34.6293 869.02 35.1733 868.38 35.568C867.75 35.952 867.052 36.144 866.284 36.144C865.612 36.144 865.014 36.0107 864.492 35.744C863.969 35.4667 863.542 35.1253 863.212 34.72V40.192H861.388V27.184H863.212V28.48ZM868.572 31.552C868.572 30.944 868.444 30.4213 868.188 29.984C867.942 29.536 867.612 29.2 867.196 28.976C866.79 28.7413 866.353 28.624 865.884 28.624C865.425 28.624 864.988 28.7413 864.572 28.976C864.166 29.2107 863.836 29.552 863.58 30C863.334 30.448 863.212 30.976 863.212 31.584C863.212 32.192 863.334 32.7253 863.58 33.184C863.836 33.632 864.166 33.9733 864.572 34.208C864.988 34.4427 865.425 34.56 865.884 34.56C866.353 34.56 866.79 34.4427 867.196 34.208C867.612 33.9627 867.942 33.6107 868.188 33.152C868.444 32.6933 868.572 32.16 868.572 31.552ZM874.055 24.16V36H872.231V24.16H874.055ZM877.378 26.016C877.047 26.016 876.77 25.904 876.546 25.68C876.322 25.456 876.21 25.1787 876.21 24.848C876.21 24.5173 876.322 24.24 876.546 24.016C876.77 23.792 877.047 23.68 877.378 23.68C877.698 23.68 877.97 23.792 878.194 24.016C878.418 24.24 878.53 24.5173 878.53 24.848C878.53 25.1787 878.418 25.456 878.194 25.68C877.97 25.904 877.698 26.016 877.378 26.016ZM878.274 27.184V36H876.45V27.184H878.274ZM880.061 31.584C880.061 30.6773 880.242 29.8827 880.605 29.2C880.978 28.5067 881.49 27.9733 882.141 27.6C882.791 27.2267 883.538 27.04 884.381 27.04C885.447 27.04 886.327 27.296 887.021 27.808C887.725 28.3093 888.199 29.0293 888.445 29.968H886.477C886.317 29.5307 886.061 29.1893 885.709 28.944C885.357 28.6987 884.914 28.576 884.381 28.576C883.634 28.576 883.037 28.8427 882.589 29.376C882.151 29.8987 881.933 30.6347 881.933 31.584C881.933 32.5333 882.151 33.2747 882.589 33.808C883.037 34.3413 883.634 34.608 884.381 34.608C885.437 34.608 886.135 34.144 886.477 33.216H888.445C888.189 34.112 887.709 34.8267 887.005 35.36C886.301 35.8827 885.426 36.144 884.381 36.144C883.538 36.144 882.791 35.9573 882.141 35.584C881.49 35.2 880.978 34.6667 880.605 33.984C880.242 33.2907 880.061 32.4907 880.061 31.584ZM889.655 31.552C889.655 30.6667 889.836 29.8827 890.199 29.2C890.572 28.5173 891.073 27.9893 891.703 27.616C892.343 27.232 893.047 27.04 893.815 27.04C894.508 27.04 895.111 27.1787 895.623 27.456C896.145 27.7227 896.561 28.0587 896.871 28.464V27.184H898.711V36H896.871V34.688C896.561 35.104 896.14 35.4507 895.607 35.728C895.073 36.0053 894.465 36.144 893.783 36.144C893.025 36.144 892.332 35.952 891.703 35.568C891.073 35.1733 890.572 34.6293 890.199 33.936C889.836 33.232 889.655 32.4373 889.655 31.552ZM896.871 31.584C896.871 30.976 896.743 30.448 896.487 30C896.241 29.552 895.916 29.2107 895.511 28.976C895.105 28.7413 894.668 28.624 894.199 28.624C893.729 28.624 893.292 28.7413 892.887 28.976C892.481 29.2 892.151 29.536 891.895 29.984C891.649 30.4213 891.527 30.944 891.527 31.552C891.527 32.16 891.649 32.6933 891.895 33.152C892.151 33.6107 892.481 33.9627 892.887 34.208C893.303 34.4427 893.74 34.56 894.199 34.56C894.668 34.56 895.105 34.4427 895.511 34.208C895.916 33.9733 896.241 33.632 896.487 33.184C896.743 32.7253 896.871 32.192 896.871 31.584ZM905.554 27.04C906.248 27.04 906.866 27.184 907.41 27.472C907.965 27.76 908.397 28.1867 908.706 28.752C909.016 29.3173 909.17 30 909.17 30.8V36H907.362V31.072C907.362 30.2827 907.165 29.68 906.77 29.264C906.376 28.8373 905.837 28.624 905.154 28.624C904.472 28.624 903.928 28.8373 903.522 29.264C903.128 29.68 902.93 30.2827 902.93 31.072V36H901.106V27.184H902.93V28.192C903.229 27.8293 903.608 27.5467 904.066 27.344C904.536 27.1413 905.032 27.04 905.554 27.04ZM913.625 28.672V33.552C913.625 33.8827 913.7 34.1227 913.849 34.272C914.009 34.4107 914.276 34.48 914.649 34.48H915.769V36H914.329C913.508 36 912.878 35.808 912.441 35.424C912.004 35.04 911.785 34.416 911.785 33.552V28.672H910.745V27.184H911.785V24.992H913.625V27.184H915.769V28.672H913.625Z" fill="#18554F"/>
<rect x="1010" y="16" width="30" height="29" rx="14.5" fill="white"/>
<path d="M1021.11 32.872V31.668L1025.82 24.92H1027.75V31.486H1029.05V32.872H1027.75V35H1026.18V32.872H1021.11ZM1026.25 26.544L1022.95 31.486H1026.25V26.544Z" fill="#CCCBCB"/>
<path d="M1064.81 38.016L1062.86 35.904C1062.38 36.0427 1061.85 36.112 1061.27 36.112C1060.24 36.112 1059.28 35.872 1058.41 35.392C1057.54 34.9013 1056.86 34.224 1056.34 33.36C1055.84 32.4853 1055.59 31.504 1055.59 30.416C1055.59 29.328 1055.84 28.352 1056.34 27.488C1056.86 26.624 1057.54 25.952 1058.41 25.472C1059.28 24.9813 1060.24 24.736 1061.27 24.736C1062.32 24.736 1063.27 24.9813 1064.14 25.472C1065.01 25.952 1065.7 26.624 1066.2 27.488C1066.7 28.352 1066.95 29.328 1066.95 30.416C1066.95 31.44 1066.73 32.368 1066.28 33.2C1065.84 34.0213 1065.23 34.6827 1064.46 35.184L1067.13 38.016H1064.81ZM1057.46 30.416C1057.46 31.2373 1057.62 31.9627 1057.94 32.592C1058.27 33.2107 1058.73 33.6907 1059.3 34.032C1059.88 34.3627 1060.54 34.528 1061.27 34.528C1062.01 34.528 1062.66 34.3627 1063.24 34.032C1063.82 33.6907 1064.26 33.2107 1064.58 32.592C1064.91 31.9627 1065.08 31.2373 1065.08 30.416C1065.08 29.5947 1064.91 28.8747 1064.58 28.256C1064.26 27.6373 1063.82 27.1627 1063.24 26.832C1062.66 26.5013 1062.01 26.336 1061.27 26.336C1060.54 26.336 1059.88 26.5013 1059.3 26.832C1058.73 27.1627 1058.27 27.6373 1057.94 28.256C1057.62 28.8747 1057.46 29.5947 1057.46 30.416ZM1076.78 27.184V36H1074.95V34.96C1074.67 35.3227 1074.29 35.6107 1073.82 35.824C1073.36 36.0267 1072.87 36.128 1072.35 36.128C1071.65 36.128 1071.03 35.984 1070.47 35.696C1069.93 35.408 1069.5 34.9813 1069.18 34.416C1068.87 33.8507 1068.71 33.168 1068.71 32.368V27.184H1070.52V32.096C1070.52 32.8853 1070.72 33.4933 1071.11 33.92C1071.51 34.336 1072.05 34.544 1072.73 34.544C1073.41 34.544 1073.95 34.336 1074.35 33.92C1074.75 33.4933 1074.95 32.8853 1074.95 32.096V27.184H1076.78ZM1087.26 31.376C1087.26 31.7067 1087.24 32.0053 1087.2 32.272H1080.46C1080.52 32.976 1080.78 33.5413 1081.25 33.968C1081.72 34.3947 1082.29 34.608 1082.98 34.608C1083.96 34.608 1084.65 34.1973 1085.06 33.376H1087.02C1086.76 34.1867 1086.27 34.8533 1085.57 35.376C1084.88 35.888 1084.01 36.144 1082.98 36.144C1082.13 36.144 1081.38 35.9573 1080.7 35.584C1080.04 35.2 1079.52 34.6667 1079.14 33.984C1078.76 33.2907 1078.58 32.4907 1078.58 31.584C1078.58 30.6773 1078.76 29.8827 1079.12 29.2C1079.49 28.5067 1080.01 27.9733 1080.67 27.6C1081.34 27.2267 1082.11 27.04 1082.98 27.04C1083.81 27.04 1084.55 27.2213 1085.2 27.584C1085.85 27.9467 1086.36 28.4587 1086.72 29.12C1087.08 29.7707 1087.26 30.5227 1087.26 31.376ZM1085.36 30.8C1085.35 30.128 1085.11 29.5893 1084.64 29.184C1084.17 28.7787 1083.59 28.576 1082.9 28.576C1082.27 28.576 1081.73 28.7787 1081.28 29.184C1080.83 29.5787 1080.57 30.1173 1080.48 30.8H1085.36ZM1092.26 36.144C1091.57 36.144 1090.94 36.0213 1090.39 35.776C1089.84 35.52 1089.41 35.1787 1089.09 34.752C1088.77 34.3147 1088.6 33.8293 1088.58 33.296H1090.47C1090.5 33.6693 1090.68 33.984 1091 34.24C1091.33 34.4853 1091.74 34.608 1092.23 34.608C1092.74 34.608 1093.13 34.512 1093.41 34.32C1093.7 34.1173 1093.84 33.8613 1093.84 33.552C1093.84 33.2213 1093.68 32.976 1093.36 32.816C1093.05 32.656 1092.56 32.48 1091.88 32.288C1091.21 32.1067 1090.68 31.9307 1090.26 31.76C1089.84 31.5893 1089.48 31.328 1089.17 30.976C1088.87 30.624 1088.72 30.16 1088.72 29.584C1088.72 29.1147 1088.86 28.688 1089.14 28.304C1089.42 27.9093 1089.81 27.6 1090.32 27.376C1090.85 27.152 1091.44 27.04 1092.12 27.04C1093.12 27.04 1093.92 27.296 1094.53 27.808C1095.15 28.3093 1095.48 28.9973 1095.52 29.872H1093.7C1093.67 29.4773 1093.51 29.1627 1093.22 28.928C1092.93 28.6933 1092.54 28.576 1092.05 28.576C1091.57 28.576 1091.2 28.6667 1090.95 28.848C1090.69 29.0293 1090.56 29.2693 1090.56 29.568C1090.56 29.8027 1090.65 30 1090.82 30.16C1090.99 30.32 1091.2 30.448 1091.44 30.544C1091.69 30.6293 1092.05 30.7413 1092.53 30.88C1093.17 31.0507 1093.69 31.2267 1094.1 31.408C1094.52 31.5787 1094.87 31.8347 1095.17 32.176C1095.47 32.5173 1095.62 32.9707 1095.64 33.536C1095.64 34.0373 1095.5 34.4853 1095.22 34.88C1094.94 35.2747 1094.55 35.584 1094.04 35.808C1093.53 36.032 1092.94 36.144 1092.26 36.144ZM1099.73 28.672V33.552C1099.73 33.8827 1099.81 34.1227 1099.96 34.272C1100.12 34.4107 1100.38 34.48 1100.76 34.48H1101.88V36H1100.44C1099.62 36 1098.99 35.808 1098.55 35.424C1098.11 35.04 1097.89 34.416 1097.89 33.552V28.672H1096.85V27.184H1097.89V24.992H1099.73V27.184H1101.88V28.672H1099.73ZM1104.49 26.016C1104.16 26.016 1103.88 25.904 1103.66 25.68C1103.43 25.456 1103.32 25.1787 1103.32 24.848C1103.32 24.5173 1103.43 24.24 1103.66 24.016C1103.88 23.792 1104.16 23.68 1104.49 23.68C1104.81 23.68 1105.08 23.792 1105.3 24.016C1105.53 24.24 1105.64 24.5173 1105.64 24.848C1105.64 25.1787 1105.53 25.456 1105.3 25.68C1105.08 25.904 1104.81 26.016 1104.49 26.016ZM1105.38 27.184V36H1103.56V27.184H1105.38ZM1111.6 36.144C1110.77 36.144 1110.02 35.9573 1109.35 35.584C1108.67 35.2 1108.15 34.6667 1107.76 33.984C1107.38 33.2907 1107.19 32.4907 1107.19 31.584C1107.19 30.688 1107.38 29.8933 1107.78 29.2C1108.17 28.5067 1108.71 27.9733 1109.39 27.6C1110.08 27.2267 1110.84 27.04 1111.68 27.04C1112.52 27.04 1113.29 27.2267 1113.97 27.6C1114.65 27.9733 1115.19 28.5067 1115.59 29.2C1115.98 29.8933 1116.18 30.688 1116.18 31.584C1116.18 32.48 1115.98 33.2747 1115.57 33.968C1115.16 34.6613 1114.61 35.2 1113.91 35.584C1113.21 35.9573 1112.44 36.144 1111.6 36.144ZM1111.6 34.56C1112.07 34.56 1112.51 34.448 1112.91 34.224C1113.33 34 1113.67 33.664 1113.92 33.216C1114.18 32.768 1114.31 32.224 1114.31 31.584C1114.31 30.944 1114.18 30.4053 1113.94 29.968C1113.69 29.52 1113.37 29.184 1112.96 28.96C1112.56 28.736 1112.12 28.624 1111.65 28.624C1111.18 28.624 1110.74 28.736 1110.34 28.96C1109.94 29.184 1109.63 29.52 1109.39 29.968C1109.16 30.4053 1109.04 30.944 1109.04 31.584C1109.04 32.5333 1109.28 33.2693 1109.76 33.792C1110.25 34.304 1110.87 34.56 1111.6 34.56ZM1122.43 27.04C1123.12 27.04 1123.74 27.184 1124.29 27.472C1124.84 27.76 1125.27 28.1867 1125.58 28.752C1125.89 29.3173 1126.05 30 1126.05 30.8V36H1124.24V31.072C1124.24 30.2827 1124.04 29.68 1123.65 29.264C1123.25 28.8373 1122.71 28.624 1122.03 28.624C1121.35 28.624 1120.8 28.8373 1120.4 29.264C1120 29.68 1119.81 30.2827 1119.81 31.072V36H1117.98V27.184H1119.81V28.192C1120.1 27.8293 1120.48 27.5467 1120.94 27.344C1121.41 27.1413 1121.91 27.04 1122.43 27.04Z" fill="#9C9C9C"/>
</svg>
