<svg width="1299" height="60" viewBox="0 0 1299 60" fill="none" xmlns="http://www.w3.org/2000/svg">
<path d="M630.103 59.5H321.013L343.397 30.3042L343.63 30L343.397 29.6958L321.013 0.5H630.103L652.374 30L630.103 59.5Z" fill="#41806D" stroke="#7DB398"/>
<path d="M950.103 59.5H641.013L663.397 30.3042L663.63 30L663.397 29.6958L641.013 0.5H950.103L972.374 30L950.103 59.5Z" fill="#41806D" stroke="#7DB398"/>
<path d="M961 0.5H1298.5V59.5H961L982.9 30.3L983.125 30L982.9 29.7L961 0.5Z" fill="#41806D" stroke="#7DB398"/>
<path d="M0.5 0.5H310.103L332.374 30L310.103 59.5H0.5V0.5Z" fill="#41806D" stroke="#7DB398"/>
<mask id="mask0_221_158" style="mask-type:luminance" maskUnits="userSpaceOnUse" x="23" y="17" width="27" height="27">
<path d="M36.5001 42.5833C38.0872 42.5854 39.6591 42.2737 41.1254 41.6664C42.5916 41.059 43.9234 40.1678 45.0442 39.0441C46.1679 37.9233 47.0591 36.5915 47.6665 35.1252C48.2739 33.6589 48.5855 32.0871 48.5834 30.5C48.5854 28.9129 48.2738 27.341 47.6664 25.8747C47.0591 24.4084 46.1679 23.0766 45.0442 21.9558C43.9234 20.8321 42.5916 19.9409 41.1254 19.3336C39.6591 18.7262 38.0872 18.4146 36.5001 18.4166C34.913 18.4146 33.3411 18.7262 31.8749 19.3336C30.4086 19.941 29.0768 20.8321 27.956 21.9558C26.8323 23.0766 25.9411 24.4084 25.3337 25.8747C24.7264 27.341 24.4147 28.9129 24.4168 30.5C24.4147 32.0871 24.7263 33.6589 25.3337 35.1252C25.9411 36.5915 26.8322 37.9233 27.956 39.0441C29.0768 40.1678 30.4086 41.0589 31.8749 41.6663C33.3411 42.2737 34.913 42.5853 36.5001 42.5833Z" fill="white" stroke="white" stroke-width="2.5" stroke-linejoin="round"/>
<path d="M31.6667 30.5L35.2917 34.125L42.5417 26.875" stroke="black" stroke-width="2.5" stroke-linecap="round" stroke-linejoin="round"/>
</mask>
<g mask="url(#mask0_221_158)">
<path d="M22 16H51V45H22V16Z" fill="white"/>
</g>
<path d="M73.264 24.88V32.896C73.264 33.888 72.96 34.672 72.352 35.248C71.7547 35.824 70.9653 36.112 69.984 36.112C69.0027 36.112 68.208 35.824 67.6 35.248C67.0027 34.672 66.704 33.888 66.704 32.896H68.544C68.5547 33.3867 68.6773 33.776 68.912 34.064C69.1573 34.352 69.5147 34.496 69.984 34.496C70.4533 34.496 70.8107 34.352 71.056 34.064C71.3013 33.7653 71.424 33.376 71.424 32.896V24.88H73.264ZM80.0553 36.144C79.2233 36.144 78.4713 35.9573 77.7993 35.584C77.1273 35.2 76.5993 34.6667 76.2153 33.984C75.8313 33.2907 75.6393 32.4907 75.6393 31.584C75.6393 30.688 75.8366 29.8933 76.2313 29.2C76.6259 28.5067 77.1646 27.9733 77.8473 27.6C78.5299 27.2267 79.2926 27.04 80.1353 27.04C80.9779 27.04 81.7406 27.2267 82.4233 27.6C83.1059 27.9733 83.6446 28.5067 84.0393 29.2C84.4339 29.8933 84.6313 30.688 84.6313 31.584C84.6313 32.48 84.4286 33.2747 84.0233 33.968C83.6179 34.6613 83.0633 35.2 82.3593 35.584C81.6659 35.9573 80.8979 36.144 80.0553 36.144ZM80.0553 34.56C80.5246 34.56 80.9619 34.448 81.3673 34.224C81.7833 34 82.1193 33.664 82.3753 33.216C82.6313 32.768 82.7593 32.224 82.7593 31.584C82.7593 30.944 82.6366 30.4053 82.3913 29.968C82.1459 29.52 81.8206 29.184 81.4153 28.96C81.0099 28.736 80.5726 28.624 80.1033 28.624C79.6339 28.624 79.1966 28.736 78.7913 28.96C78.3966 29.184 78.0819 29.52 77.8473 29.968C77.6126 30.4053 77.4953 30.944 77.4953 31.584C77.4953 32.5333 77.7353 33.2693 78.2153 33.792C78.7059 34.304 79.3193 34.56 80.0553 34.56ZM88.2584 28.496C88.5677 28.0693 88.989 27.7227 89.5224 27.456C90.0664 27.1787 90.669 27.04 91.3304 27.04C92.109 27.04 92.813 27.2267 93.4424 27.6C94.0717 27.9733 94.5677 28.5067 94.9304 29.2C95.293 29.8827 95.4744 30.6667 95.4744 31.552C95.4744 32.4373 95.293 33.232 94.9304 33.936C94.5677 34.6293 94.0664 35.1733 93.4264 35.568C92.797 35.952 92.0984 36.144 91.3304 36.144C90.6477 36.144 90.0397 36.0107 89.5064 35.744C88.9837 35.4773 88.5677 35.136 88.2584 34.72V36H86.4344V24.16H88.2584V28.496ZM93.6184 31.552C93.6184 30.944 93.4904 30.4213 93.2344 29.984C92.989 29.536 92.6584 29.2 92.2424 28.976C91.837 28.7413 91.3997 28.624 90.9304 28.624C90.4717 28.624 90.0344 28.7413 89.6184 28.976C89.213 29.2107 88.8824 29.552 88.6264 30C88.381 30.448 88.2584 30.976 88.2584 31.584C88.2584 32.192 88.381 32.7253 88.6264 33.184C88.8824 33.632 89.213 33.9733 89.6184 34.208C90.0344 34.4427 90.4717 34.56 90.9304 34.56C91.3997 34.56 91.837 34.4427 92.2424 34.208C92.6584 33.9627 92.989 33.6107 93.2344 33.152C93.4904 32.6933 93.6184 32.16 93.6184 31.552ZM105.066 24.88C106.25 24.88 107.285 25.1093 108.17 25.568C109.066 26.016 109.754 26.6667 110.234 27.52C110.725 28.3627 110.97 29.3493 110.97 30.48C110.97 31.6107 110.725 32.592 110.234 33.424C109.754 34.256 109.066 34.896 108.17 35.344C107.285 35.7813 106.25 36 105.066 36H101.434V24.88H105.066ZM105.066 34.512C106.368 34.512 107.365 34.16 108.058 33.456C108.752 32.752 109.098 31.76 109.098 30.48C109.098 29.1893 108.752 28.1813 108.058 27.456C107.365 26.7307 106.368 26.368 105.066 26.368H103.258V34.512H105.066ZM120.858 31.376C120.858 31.7067 120.837 32.0053 120.794 32.272H114.058C114.111 32.976 114.373 33.5413 114.842 33.968C115.311 34.3947 115.887 34.608 116.57 34.608C117.551 34.608 118.245 34.1973 118.65 33.376H120.618C120.351 34.1867 119.866 34.8533 119.162 35.376C118.469 35.888 117.605 36.144 116.57 36.144C115.727 36.144 114.97 35.9573 114.298 35.584C113.637 35.2 113.114 34.6667 112.73 33.984C112.357 33.2907 112.17 32.4907 112.17 31.584C112.17 30.6773 112.351 29.8827 112.714 29.2C113.087 28.5067 113.605 27.9733 114.266 27.6C114.938 27.2267 115.706 27.04 116.57 27.04C117.402 27.04 118.143 27.2213 118.794 27.584C119.445 27.9467 119.951 28.4587 120.314 29.12C120.677 29.7707 120.858 30.5227 120.858 31.376ZM118.954 30.8C118.943 30.128 118.703 29.5893 118.234 29.184C117.765 28.7787 117.183 28.576 116.49 28.576C115.861 28.576 115.322 28.7787 114.874 29.184C114.426 29.5787 114.159 30.1173 114.074 30.8H118.954ZM124.781 28.672V33.552C124.781 33.8827 124.856 34.1227 125.005 34.272C125.165 34.4107 125.432 34.48 125.805 34.48H126.925V36H125.485C124.664 36 124.034 35.808 123.597 35.424C123.16 35.04 122.941 34.416 122.941 33.552V28.672H121.901V27.184H122.941V24.992H124.781V27.184H126.925V28.672H124.781ZM127.998 31.552C127.998 30.6667 128.18 29.8827 128.542 29.2C128.916 28.5173 129.417 27.9893 130.046 27.616C130.686 27.232 131.39 27.04 132.158 27.04C132.852 27.04 133.454 27.1787 133.966 27.456C134.489 27.7227 134.905 28.0587 135.214 28.464V27.184H137.054V36H135.214V34.688C134.905 35.104 134.484 35.4507 133.95 35.728C133.417 36.0053 132.809 36.144 132.126 36.144C131.369 36.144 130.676 35.952 130.046 35.568C129.417 35.1733 128.916 34.6293 128.542 33.936C128.18 33.232 127.998 32.4373 127.998 31.552ZM135.214 31.584C135.214 30.976 135.086 30.448 134.83 30C134.585 29.552 134.26 29.2107 133.854 28.976C133.449 28.7413 133.012 28.624 132.542 28.624C132.073 28.624 131.636 28.7413 131.23 28.976C130.825 29.2 130.494 29.536 130.238 29.984C129.993 30.4213 129.87 30.944 129.87 31.552C129.87 32.16 129.993 32.6933 130.238 33.152C130.494 33.6107 130.825 33.9627 131.23 34.208C131.646 34.4427 132.084 34.56 132.542 34.56C133.012 34.56 133.449 34.4427 133.854 34.208C134.26 33.9733 134.585 33.632 134.83 33.184C135.086 32.7253 135.214 32.192 135.214 31.584ZM140.378 26.016C140.047 26.016 139.77 25.904 139.546 25.68C139.322 25.456 139.21 25.1787 139.21 24.848C139.21 24.5173 139.322 24.24 139.546 24.016C139.77 23.792 140.047 23.68 140.378 23.68C140.698 23.68 140.97 23.792 141.194 24.016C141.418 24.24 141.53 24.5173 141.53 24.848C141.53 25.1787 141.418 25.456 141.194 25.68C140.97 25.904 140.698 26.016 140.378 26.016ZM141.274 27.184V36H139.45V27.184H141.274ZM145.493 24.16V36H143.669V24.16H145.493ZM151.088 36.144C150.394 36.144 149.77 36.0213 149.216 35.776C148.672 35.52 148.24 35.1787 147.92 34.752C147.6 34.3147 147.429 33.8293 147.408 33.296H149.296C149.328 33.6693 149.504 33.984 149.824 34.24C150.154 34.4853 150.565 34.608 151.056 34.608C151.568 34.608 151.962 34.512 152.24 34.32C152.528 34.1173 152.672 33.8613 152.672 33.552C152.672 33.2213 152.512 32.976 152.192 32.816C151.882 32.656 151.386 32.48 150.704 32.288C150.042 32.1067 149.504 31.9307 149.088 31.76C148.672 31.5893 148.309 31.328 148 30.976C147.701 30.624 147.552 30.16 147.552 29.584C147.552 29.1147 147.69 28.688 147.968 28.304C148.245 27.9093 148.64 27.6 149.152 27.376C149.674 27.152 150.272 27.04 150.944 27.04C151.946 27.04 152.752 27.296 153.36 27.808C153.978 28.3093 154.309 28.9973 154.352 29.872H152.528C152.496 29.4773 152.336 29.1627 152.048 28.928C151.76 28.6933 151.37 28.576 150.88 28.576C150.4 28.576 150.032 28.6667 149.776 28.848C149.52 29.0293 149.392 29.2693 149.392 29.568C149.392 29.8027 149.477 30 149.648 30.16C149.818 30.32 150.026 30.448 150.272 30.544C150.517 30.6293 150.88 30.7413 151.36 30.88C152 31.0507 152.522 31.2267 152.928 31.408C153.344 31.5787 153.701 31.8347 154 32.176C154.298 32.5173 154.453 32.9707 154.464 33.536C154.464 34.0373 154.325 34.4853 154.048 34.88C153.77 35.2747 153.376 35.584 152.864 35.808C152.362 36.032 151.77 36.144 151.088 36.144Z" fill="white"/>
<mask id="mask1_221_158" style="mask-type:luminance" maskUnits="userSpaceOnUse" x="371" y="17" width="27" height="27">
<path d="M384.5 42.5833C386.087 42.5854 387.659 42.2737 389.125 41.6664C390.592 41.059 391.923 40.1678 393.044 39.0441C394.168 37.9233 395.059 36.5915 395.666 35.1252C396.274 33.6589 396.585 32.0871 396.583 30.5C396.585 28.9129 396.274 27.341 395.666 25.8747C395.059 24.4084 394.168 23.0766 393.044 21.9558C391.923 20.8321 390.592 19.9409 389.125 19.3336C387.659 18.7262 386.087 18.4146 384.5 18.4166C382.913 18.4146 381.341 18.7262 379.875 19.3336C378.409 19.941 377.077 20.8321 375.956 21.9558C374.832 23.0766 373.941 24.4084 373.334 25.8747C372.726 27.341 372.415 28.9129 372.417 30.5C372.415 32.0871 372.726 33.6589 373.334 35.1252C373.941 36.5915 374.832 37.9233 375.956 39.0441C377.077 40.1678 378.409 41.0589 379.875 41.6663C381.341 42.2737 382.913 42.5853 384.5 42.5833Z" fill="white" stroke="white" stroke-width="2.5" stroke-linejoin="round"/>
<path d="M379.667 30.5L383.292 34.125L390.542 26.875" stroke="black" stroke-width="2.5" stroke-linecap="round" stroke-linejoin="round"/>
</mask>
<g mask="url(#mask1_221_158)">
<path d="M370 16H399V45H370V16Z" fill="white"/>
</g>
<path d="M421.264 24.88V32.896C421.264 33.888 420.96 34.672 420.352 35.248C419.755 35.824 418.965 36.112 417.984 36.112C417.003 36.112 416.208 35.824 415.6 35.248C415.003 34.672 414.704 33.888 414.704 32.896H416.544C416.555 33.3867 416.677 33.776 416.912 34.064C417.157 34.352 417.515 34.496 417.984 34.496C418.453 34.496 418.811 34.352 419.056 34.064C419.301 33.7653 419.424 33.376 419.424 32.896V24.88H421.264ZM428.055 36.144C427.223 36.144 426.471 35.9573 425.799 35.584C425.127 35.2 424.599 34.6667 424.215 33.984C423.831 33.2907 423.639 32.4907 423.639 31.584C423.639 30.688 423.837 29.8933 424.231 29.2C424.626 28.5067 425.165 27.9733 425.847 27.6C426.53 27.2267 427.293 27.04 428.135 27.04C428.978 27.04 429.741 27.2267 430.423 27.6C431.106 27.9733 431.645 28.5067 432.039 29.2C432.434 29.8933 432.631 30.688 432.631 31.584C432.631 32.48 432.429 33.2747 432.023 33.968C431.618 34.6613 431.063 35.2 430.359 35.584C429.666 35.9573 428.898 36.144 428.055 36.144ZM428.055 34.56C428.525 34.56 428.962 34.448 429.367 34.224C429.783 34 430.119 33.664 430.375 33.216C430.631 32.768 430.759 32.224 430.759 31.584C430.759 30.944 430.637 30.4053 430.391 29.968C430.146 29.52 429.821 29.184 429.415 28.96C429.01 28.736 428.573 28.624 428.103 28.624C427.634 28.624 427.197 28.736 426.791 28.96C426.397 29.184 426.082 29.52 425.847 29.968C425.613 30.4053 425.495 30.944 425.495 31.584C425.495 32.5333 425.735 33.2693 426.215 33.792C426.706 34.304 427.319 34.56 428.055 34.56ZM436.258 28.496C436.568 28.0693 436.989 27.7227 437.522 27.456C438.066 27.1787 438.669 27.04 439.33 27.04C440.109 27.04 440.813 27.2267 441.442 27.6C442.072 27.9733 442.568 28.5067 442.93 29.2C443.293 29.8827 443.474 30.6667 443.474 31.552C443.474 32.4373 443.293 33.232 442.93 33.936C442.568 34.6293 442.066 35.1733 441.426 35.568C440.797 35.952 440.098 36.144 439.33 36.144C438.648 36.144 438.04 36.0107 437.506 35.744C436.984 35.4773 436.568 35.136 436.258 34.72V36H434.434V24.16H436.258V28.496ZM441.618 31.552C441.618 30.944 441.49 30.4213 441.234 29.984C440.989 29.536 440.658 29.2 440.242 28.976C439.837 28.7413 439.4 28.624 438.93 28.624C438.472 28.624 438.034 28.7413 437.618 28.976C437.213 29.2107 436.882 29.552 436.626 30C436.381 30.448 436.258 30.976 436.258 31.584C436.258 32.192 436.381 32.7253 436.626 33.184C436.882 33.632 437.213 33.9733 437.618 34.208C438.034 34.4427 438.472 34.56 438.93 34.56C439.4 34.56 439.837 34.4427 440.242 34.208C440.658 33.9627 440.989 33.6107 441.234 33.152C441.49 32.6933 441.618 32.16 441.618 31.552ZM453.066 24.88C454.25 24.88 455.285 25.1093 456.17 25.568C457.066 26.016 457.754 26.6667 458.234 27.52C458.725 28.3627 458.97 29.3493 458.97 30.48C458.97 31.6107 458.725 32.592 458.234 33.424C457.754 34.256 457.066 34.896 456.17 35.344C455.285 35.7813 454.25 36 453.066 36H449.434V24.88H453.066ZM453.066 34.512C454.368 34.512 455.365 34.16 456.058 33.456C456.752 32.752 457.098 31.76 457.098 30.48C457.098 29.1893 456.752 28.1813 456.058 27.456C455.365 26.7307 454.368 26.368 453.066 26.368H451.258V34.512H453.066ZM468.858 31.376C468.858 31.7067 468.837 32.0053 468.794 32.272H462.058C462.111 32.976 462.373 33.5413 462.842 33.968C463.311 34.3947 463.887 34.608 464.57 34.608C465.551 34.608 466.245 34.1973 466.65 33.376H468.618C468.351 34.1867 467.866 34.8533 467.162 35.376C466.469 35.888 465.605 36.144 464.57 36.144C463.727 36.144 462.97 35.9573 462.298 35.584C461.637 35.2 461.114 34.6667 460.73 33.984C460.357 33.2907 460.17 32.4907 460.17 31.584C460.17 30.6773 460.351 29.8827 460.714 29.2C461.087 28.5067 461.605 27.9733 462.266 27.6C462.938 27.2267 463.706 27.04 464.57 27.04C465.402 27.04 466.143 27.2213 466.794 27.584C467.445 27.9467 467.951 28.4587 468.314 29.12C468.677 29.7707 468.858 30.5227 468.858 31.376ZM466.954 30.8C466.943 30.128 466.703 29.5893 466.234 29.184C465.765 28.7787 465.183 28.576 464.49 28.576C463.861 28.576 463.322 28.7787 462.874 29.184C462.426 29.5787 462.159 30.1173 462.074 30.8H466.954ZM473.853 36.144C473.16 36.144 472.536 36.0213 471.981 35.776C471.437 35.52 471.005 35.1787 470.685 34.752C470.365 34.3147 470.194 33.8293 470.173 33.296H472.061C472.093 33.6693 472.269 33.984 472.589 34.24C472.92 34.4853 473.33 34.608 473.821 34.608C474.333 34.608 474.728 34.512 475.005 34.32C475.293 34.1173 475.437 33.8613 475.437 33.552C475.437 33.2213 475.277 32.976 474.957 32.816C474.648 32.656 474.152 32.48 473.469 32.288C472.808 32.1067 472.269 31.9307 471.853 31.76C471.437 31.5893 471.074 31.328 470.765 30.976C470.466 30.624 470.317 30.16 470.317 29.584C470.317 29.1147 470.456 28.688 470.733 28.304C471.01 27.9093 471.405 27.6 471.917 27.376C472.44 27.152 473.037 27.04 473.709 27.04C474.712 27.04 475.517 27.296 476.125 27.808C476.744 28.3093 477.074 28.9973 477.117 29.872H475.293C475.261 29.4773 475.101 29.1627 474.813 28.928C474.525 28.6933 474.136 28.576 473.645 28.576C473.165 28.576 472.797 28.6667 472.541 28.848C472.285 29.0293 472.157 29.2693 472.157 29.568C472.157 29.8027 472.242 30 472.413 30.16C472.584 30.32 472.792 30.448 473.037 30.544C473.282 30.6293 473.645 30.7413 474.125 30.88C474.765 31.0507 475.288 31.2267 475.693 31.408C476.109 31.5787 476.466 31.8347 476.765 32.176C477.064 32.5173 477.218 32.9707 477.229 33.536C477.229 34.0373 477.09 34.4853 476.813 34.88C476.536 35.2747 476.141 35.584 475.629 35.808C475.128 36.032 474.536 36.144 473.853 36.144ZM478.592 31.584C478.592 30.6773 478.773 29.8827 479.136 29.2C479.509 28.5067 480.021 27.9733 480.672 27.6C481.323 27.2267 482.069 27.04 482.912 27.04C483.979 27.04 484.859 27.296 485.552 27.808C486.256 28.3093 486.731 29.0293 486.976 29.968H485.008C484.848 29.5307 484.592 29.1893 484.24 28.944C483.888 28.6987 483.445 28.576 482.912 28.576C482.165 28.576 481.568 28.8427 481.12 29.376C480.683 29.8987 480.464 30.6347 480.464 31.584C480.464 32.5333 480.683 33.2747 481.12 33.808C481.568 34.3413 482.165 34.608 482.912 34.608C483.968 34.608 484.667 34.144 485.008 33.216H486.976C486.72 34.112 486.24 34.8267 485.536 35.36C484.832 35.8827 483.957 36.144 482.912 36.144C482.069 36.144 481.323 35.9573 480.672 35.584C480.021 35.2 479.509 34.6667 479.136 33.984C478.773 33.2907 478.592 32.4907 478.592 31.584ZM490.618 28.464C490.884 28.016 491.236 27.6693 491.674 27.424C492.122 27.168 492.65 27.04 493.258 27.04V28.928H492.794C492.079 28.928 491.535 29.1093 491.162 29.472C490.799 29.8347 490.618 30.464 490.618 31.36V36H488.794V27.184H490.618V28.464ZM495.862 26.016C495.532 26.016 495.254 25.904 495.03 25.68C494.806 25.456 494.694 25.1787 494.694 24.848C494.694 24.5173 494.806 24.24 495.03 24.016C495.254 23.792 495.532 23.68 495.862 23.68C496.182 23.68 496.454 23.792 496.678 24.016C496.902 24.24 497.014 24.5173 497.014 24.848C497.014 25.1787 496.902 25.456 496.678 25.68C496.454 25.904 496.182 26.016 495.862 26.016ZM496.758 27.184V36H494.934V27.184H496.758ZM500.977 28.48C501.286 28.0747 501.708 27.7333 502.241 27.456C502.774 27.1787 503.377 27.04 504.049 27.04C504.817 27.04 505.516 27.232 506.145 27.616C506.785 27.9893 507.286 28.5173 507.649 29.2C508.012 29.8827 508.193 30.6667 508.193 31.552C508.193 32.4373 508.012 33.232 507.649 33.936C507.286 34.6293 506.785 35.1733 506.145 35.568C505.516 35.952 504.817 36.144 504.049 36.144C503.377 36.144 502.78 36.0107 502.257 35.744C501.734 35.4667 501.308 35.1253 500.977 34.72V40.192H499.153V27.184H500.977V28.48ZM506.337 31.552C506.337 30.944 506.209 30.4213 505.953 29.984C505.708 29.536 505.377 29.2 504.961 28.976C504.556 28.7413 504.118 28.624 503.649 28.624C503.19 28.624 502.753 28.7413 502.337 28.976C501.932 29.2107 501.601 29.552 501.345 30C501.1 30.448 500.977 30.976 500.977 31.584C500.977 32.192 501.1 32.7253 501.345 33.184C501.601 33.632 501.932 33.9733 502.337 34.208C502.753 34.4427 503.19 34.56 503.649 34.56C504.118 34.56 504.556 34.4427 504.961 34.208C505.377 33.9627 505.708 33.6107 505.953 33.152C506.209 32.6933 506.337 32.16 506.337 31.552ZM512.125 28.672V33.552C512.125 33.8827 512.2 34.1227 512.349 34.272C512.509 34.4107 512.776 34.48 513.149 34.48H514.269V36H512.829C512.008 36 511.378 35.808 510.941 35.424C510.504 35.04 510.285 34.416 510.285 33.552V28.672H509.245V27.184H510.285V24.992H512.125V27.184H514.269V28.672H512.125ZM516.878 26.016C516.547 26.016 516.27 25.904 516.046 25.68C515.822 25.456 515.71 25.1787 515.71 24.848C515.71 24.5173 515.822 24.24 516.046 24.016C516.27 23.792 516.547 23.68 516.878 23.68C517.198 23.68 517.47 23.792 517.694 24.016C517.918 24.24 518.03 24.5173 518.03 24.848C518.03 25.1787 517.918 25.456 517.694 25.68C517.47 25.904 517.198 26.016 516.878 26.016ZM517.774 27.184V36H515.95V27.184H517.774ZM523.993 36.144C523.161 36.144 522.409 35.9573 521.737 35.584C521.065 35.2 520.537 34.6667 520.153 33.984C519.769 33.2907 519.577 32.4907 519.577 31.584C519.577 30.688 519.774 29.8933 520.169 29.2C520.563 28.5067 521.102 27.9733 521.785 27.6C522.467 27.2267 523.23 27.04 524.073 27.04C524.915 27.04 525.678 27.2267 526.361 27.6C527.043 27.9733 527.582 28.5067 527.977 29.2C528.371 29.8933 528.569 30.688 528.569 31.584C528.569 32.48 528.366 33.2747 527.961 33.968C527.555 34.6613 527.001 35.2 526.297 35.584C525.603 35.9573 524.835 36.144 523.993 36.144ZM523.993 34.56C524.462 34.56 524.899 34.448 525.305 34.224C525.721 34 526.057 33.664 526.313 33.216C526.569 32.768 526.697 32.224 526.697 31.584C526.697 30.944 526.574 30.4053 526.329 29.968C526.083 29.52 525.758 29.184 525.353 28.96C524.947 28.736 524.51 28.624 524.041 28.624C523.571 28.624 523.134 28.736 522.729 28.96C522.334 29.184 522.019 29.52 521.785 29.968C521.55 30.4053 521.433 30.944 521.433 31.584C521.433 32.5333 521.673 33.2693 522.153 33.792C522.643 34.304 523.257 34.56 523.993 34.56ZM534.82 27.04C535.513 27.04 536.132 27.184 536.676 27.472C537.231 27.76 537.663 28.1867 537.972 28.752C538.281 29.3173 538.436 30 538.436 30.8V36H536.628V31.072C536.628 30.2827 536.431 29.68 536.036 29.264C535.641 28.8373 535.103 28.624 534.42 28.624C533.737 28.624 533.193 28.8373 532.788 29.264C532.393 29.68 532.196 30.2827 532.196 31.072V36H530.372V27.184H532.196V28.192C532.495 27.8293 532.873 27.5467 533.332 27.344C533.801 27.1413 534.297 27.04 534.82 27.04Z" fill="white"/>
<mask id="mask2_221_158" style="mask-type:luminance" maskUnits="userSpaceOnUse" x="691" y="17" width="27" height="27">
<path d="M704.5 42.5833C706.087 42.5854 707.659 42.2737 709.125 41.6664C710.592 41.059 711.923 40.1678 713.044 39.0441C714.168 37.9233 715.059 36.5915 715.666 35.1252C716.274 33.6589 716.585 32.0871 716.583 30.5C716.585 28.9129 716.274 27.341 715.666 25.8747C715.059 24.4084 714.168 23.0766 713.044 21.9558C711.923 20.8321 710.592 19.9409 709.125 19.3336C707.659 18.7262 706.087 18.4146 704.5 18.4166C702.913 18.4146 701.341 18.7262 699.875 19.3336C698.409 19.941 697.077 20.8321 695.956 21.9558C694.832 23.0766 693.941 24.4084 693.334 25.8747C692.726 27.341 692.415 28.9129 692.417 30.5C692.415 32.0871 692.726 33.6589 693.334 35.1252C693.941 36.5915 694.832 37.9233 695.956 39.0441C697.077 40.1678 698.409 41.0589 699.875 41.6663C701.341 42.2737 702.913 42.5853 704.5 42.5833Z" fill="white" stroke="white" stroke-width="2.5" stroke-linejoin="round"/>
<path d="M699.667 30.5L703.292 34.125L710.542 26.875" stroke="black" stroke-width="2.5" stroke-linecap="round" stroke-linejoin="round"/>
</mask>
<g mask="url(#mask2_221_158)">
<path d="M690 16H719V45H690V16Z" fill="white"/>
</g>
<path d="M741.904 33.728H737.248L736.448 36H734.544L738.528 24.864H740.64L744.624 36H742.704L741.904 33.728ZM741.392 32.24L739.584 27.072L737.76 32.24H741.392ZM748.18 28.48C748.49 28.0747 748.911 27.7333 749.444 27.456C749.978 27.1787 750.58 27.04 751.252 27.04C752.02 27.04 752.719 27.232 753.348 27.616C753.988 27.9893 754.49 28.5173 754.852 29.2C755.215 29.8827 755.396 30.6667 755.396 31.552C755.396 32.4373 755.215 33.232 754.852 33.936C754.49 34.6293 753.988 35.1733 753.348 35.568C752.719 35.952 752.02 36.144 751.252 36.144C750.58 36.144 749.983 36.0107 749.46 35.744C748.938 35.4667 748.511 35.1253 748.18 34.72V40.192H746.356V27.184H748.18V28.48ZM753.54 31.552C753.54 30.944 753.412 30.4213 753.156 29.984C752.911 29.536 752.58 29.2 752.164 28.976C751.759 28.7413 751.322 28.624 750.852 28.624C750.394 28.624 749.956 28.7413 749.54 28.976C749.135 29.2107 748.804 29.552 748.548 30C748.303 30.448 748.18 30.976 748.18 31.584C748.18 32.192 748.303 32.7253 748.548 33.184C748.804 33.632 749.135 33.9733 749.54 34.208C749.956 34.4427 750.394 34.56 750.852 34.56C751.322 34.56 751.759 34.4427 752.164 34.208C752.58 33.9627 752.911 33.6107 753.156 33.152C753.412 32.6933 753.54 32.16 753.54 31.552ZM759.024 28.48C759.333 28.0747 759.755 27.7333 760.288 27.456C760.821 27.1787 761.424 27.04 762.096 27.04C762.864 27.04 763.563 27.232 764.192 27.616C764.832 27.9893 765.333 28.5173 765.696 29.2C766.059 29.8827 766.24 30.6667 766.24 31.552C766.24 32.4373 766.059 33.232 765.696 33.936C765.333 34.6293 764.832 35.1733 764.192 35.568C763.563 35.952 762.864 36.144 762.096 36.144C761.424 36.144 760.827 36.0107 760.304 35.744C759.781 35.4667 759.355 35.1253 759.024 34.72V40.192H757.2V27.184H759.024V28.48ZM764.384 31.552C764.384 30.944 764.256 30.4213 764 29.984C763.755 29.536 763.424 29.2 763.008 28.976C762.603 28.7413 762.165 28.624 761.696 28.624C761.237 28.624 760.8 28.7413 760.384 28.976C759.979 29.2107 759.648 29.552 759.392 30C759.147 30.448 759.024 30.976 759.024 31.584C759.024 32.192 759.147 32.7253 759.392 33.184C759.648 33.632 759.979 33.9733 760.384 34.208C760.8 34.4427 761.237 34.56 761.696 34.56C762.165 34.56 762.603 34.4427 763.008 34.208C763.424 33.9627 763.755 33.6107 764 33.152C764.256 32.6933 764.384 32.16 764.384 31.552ZM769.868 24.16V36H768.044V24.16H769.868ZM773.191 26.016C772.86 26.016 772.583 25.904 772.359 25.68C772.135 25.456 772.023 25.1787 772.023 24.848C772.023 24.5173 772.135 24.24 772.359 24.016C772.583 23.792 772.86 23.68 773.191 23.68C773.511 23.68 773.783 23.792 774.007 24.016C774.231 24.24 774.343 24.5173 774.343 24.848C774.343 25.1787 774.231 25.456 774.007 25.68C773.783 25.904 773.511 26.016 773.191 26.016ZM774.087 27.184V36H772.263V27.184H774.087ZM775.873 31.584C775.873 30.6773 776.055 29.8827 776.417 29.2C776.791 28.5067 777.303 27.9733 777.953 27.6C778.604 27.2267 779.351 27.04 780.193 27.04C781.26 27.04 782.14 27.296 782.833 27.808C783.537 28.3093 784.012 29.0293 784.257 29.968H782.289C782.129 29.5307 781.873 29.1893 781.521 28.944C781.169 28.6987 780.727 28.576 780.193 28.576C779.447 28.576 778.849 28.8427 778.401 29.376C777.964 29.8987 777.745 30.6347 777.745 31.584C777.745 32.5333 777.964 33.2747 778.401 33.808C778.849 34.3413 779.447 34.608 780.193 34.608C781.249 34.608 781.948 34.144 782.289 33.216H784.257C784.001 34.112 783.521 34.8267 782.817 35.36C782.113 35.8827 781.239 36.144 780.193 36.144C779.351 36.144 778.604 35.9573 777.953 35.584C777.303 35.2 776.791 34.6667 776.417 33.984C776.055 33.2907 775.873 32.4907 775.873 31.584ZM785.467 31.552C785.467 30.6667 785.648 29.8827 786.011 29.2C786.384 28.5173 786.886 27.9893 787.515 27.616C788.155 27.232 788.859 27.04 789.627 27.04C790.32 27.04 790.923 27.1787 791.435 27.456C791.958 27.7227 792.374 28.0587 792.683 28.464V27.184H794.523V36H792.683V34.688C792.374 35.104 791.952 35.4507 791.419 35.728C790.886 36.0053 790.278 36.144 789.595 36.144C788.838 36.144 788.144 35.952 787.515 35.568C786.886 35.1733 786.384 34.6293 786.011 33.936C785.648 33.232 785.467 32.4373 785.467 31.552ZM792.683 31.584C792.683 30.976 792.555 30.448 792.299 30C792.054 29.552 791.728 29.2107 791.323 28.976C790.918 28.7413 790.48 28.624 790.011 28.624C789.542 28.624 789.104 28.7413 788.699 28.976C788.294 29.2 787.963 29.536 787.707 29.984C787.462 30.4213 787.339 30.944 787.339 31.552C787.339 32.16 787.462 32.6933 787.707 33.152C787.963 33.6107 788.294 33.9627 788.699 34.208C789.115 34.4427 789.552 34.56 790.011 34.56C790.48 34.56 790.918 34.4427 791.323 34.208C791.728 33.9733 792.054 33.632 792.299 33.184C792.555 32.7253 792.683 32.192 792.683 31.584ZM799.047 28.672V33.552C799.047 33.8827 799.121 34.1227 799.271 34.272C799.431 34.4107 799.697 34.48 800.071 34.48H801.191V36H799.751C798.929 36 798.3 35.808 797.863 35.424C797.425 35.04 797.207 34.416 797.207 33.552V28.672H796.167V27.184H797.207V24.992H799.047V27.184H801.191V28.672H799.047ZM803.8 26.016C803.469 26.016 803.192 25.904 802.968 25.68C802.744 25.456 802.632 25.1787 802.632 24.848C802.632 24.5173 802.744 24.24 802.968 24.016C803.192 23.792 803.469 23.68 803.8 23.68C804.12 23.68 804.392 23.792 804.616 24.016C804.84 24.24 804.952 24.5173 804.952 24.848C804.952 25.1787 804.84 25.456 804.616 25.68C804.392 25.904 804.12 26.016 803.8 26.016ZM804.696 27.184V36H802.872V27.184H804.696ZM810.915 36.144C810.083 36.144 809.331 35.9573 808.659 35.584C807.987 35.2 807.459 34.6667 807.075 33.984C806.691 33.2907 806.499 32.4907 806.499 31.584C806.499 30.688 806.696 29.8933 807.091 29.2C807.485 28.5067 808.024 27.9733 808.707 27.6C809.389 27.2267 810.152 27.04 810.995 27.04C811.837 27.04 812.6 27.2267 813.283 27.6C813.965 27.9733 814.504 28.5067 814.899 29.2C815.293 29.8933 815.491 30.688 815.491 31.584C815.491 32.48 815.288 33.2747 814.883 33.968C814.477 34.6613 813.923 35.2 813.219 35.584C812.525 35.9573 811.757 36.144 810.915 36.144ZM810.915 34.56C811.384 34.56 811.821 34.448 812.227 34.224C812.643 34 812.979 33.664 813.235 33.216C813.491 32.768 813.619 32.224 813.619 31.584C813.619 30.944 813.496 30.4053 813.251 29.968C813.005 29.52 812.68 29.184 812.275 28.96C811.869 28.736 811.432 28.624 810.963 28.624C810.493 28.624 810.056 28.736 809.651 28.96C809.256 29.184 808.941 29.52 808.707 29.968C808.472 30.4053 808.355 30.944 808.355 31.584C808.355 32.5333 808.595 33.2693 809.075 33.792C809.565 34.304 810.179 34.56 810.915 34.56ZM821.742 27.04C822.435 27.04 823.054 27.184 823.598 27.472C824.152 27.76 824.584 28.1867 824.894 28.752C825.203 29.3173 825.358 30 825.358 30.8V36H823.55V31.072C823.55 30.2827 823.352 29.68 822.958 29.264C822.563 28.8373 822.024 28.624 821.342 28.624C820.659 28.624 820.115 28.8373 819.71 29.264C819.315 29.68 819.118 30.2827 819.118 31.072V36H817.294V27.184H819.118V28.192C819.416 27.8293 819.795 27.5467 820.254 27.344C820.723 27.1413 821.219 27.04 821.742 27.04ZM838.385 24.88V26.368H833.665V29.648H837.345V31.136H833.665V36H831.841V24.88H838.385ZM843.899 36.144C843.067 36.144 842.315 35.9573 841.643 35.584C840.971 35.2 840.443 34.6667 840.059 33.984C839.675 33.2907 839.483 32.4907 839.483 31.584C839.483 30.688 839.68 29.8933 840.075 29.2C840.47 28.5067 841.008 27.9733 841.691 27.6C842.374 27.2267 843.136 27.04 843.979 27.04C844.822 27.04 845.584 27.2267 846.267 27.6C846.95 27.9733 847.488 28.5067 847.883 29.2C848.278 29.8933 848.475 30.688 848.475 31.584C848.475 32.48 848.272 33.2747 847.867 33.968C847.462 34.6613 846.907 35.2 846.203 35.584C845.51 35.9573 844.742 36.144 843.899 36.144ZM843.899 34.56C844.368 34.56 844.806 34.448 845.211 34.224C845.627 34 845.963 33.664 846.219 33.216C846.475 32.768 846.603 32.224 846.603 31.584C846.603 30.944 846.48 30.4053 846.235 29.968C845.99 29.52 845.664 29.184 845.259 28.96C844.854 28.736 844.416 28.624 843.947 28.624C843.478 28.624 843.04 28.736 842.635 28.96C842.24 29.184 841.926 29.52 841.691 29.968C841.456 30.4053 841.339 30.944 841.339 31.584C841.339 32.5333 841.579 33.2693 842.059 33.792C842.55 34.304 843.163 34.56 843.899 34.56ZM852.102 28.464C852.369 28.016 852.721 27.6693 853.158 27.424C853.606 27.168 854.134 27.04 854.742 27.04V28.928H854.278C853.563 28.928 853.019 29.1093 852.646 29.472C852.283 29.8347 852.102 30.464 852.102 31.36V36H850.278V27.184H852.102V28.464ZM867.091 27.04C867.784 27.04 868.403 27.184 868.947 27.472C869.501 27.76 869.933 28.1867 870.243 28.752C870.563 29.3173 870.723 30 870.723 30.8V36H868.915V31.072C868.915 30.2827 868.717 29.68 868.323 29.264C867.928 28.8373 867.389 28.624 866.707 28.624C866.024 28.624 865.48 28.8373 865.075 29.264C864.68 29.68 864.483 30.2827 864.483 31.072V36H862.675V31.072C862.675 30.2827 862.477 29.68 862.083 29.264C861.688 28.8373 861.149 28.624 860.467 28.624C859.784 28.624 859.24 28.8373 858.835 29.264C858.44 29.68 858.243 30.2827 858.243 31.072V36H856.419V27.184H858.243V28.192C858.541 27.8293 858.92 27.5467 859.379 27.344C859.837 27.1413 860.328 27.04 860.851 27.04C861.555 27.04 862.184 27.1893 862.739 27.488C863.293 27.7867 863.72 28.2187 864.019 28.784C864.285 28.2507 864.701 27.8293 865.267 27.52C865.832 27.2 866.44 27.04 867.091 27.04Z" fill="white"/>
<mask id="mask3_221_158" style="mask-type:luminance" maskUnits="userSpaceOnUse" x="1011" y="17" width="27" height="27">
<path d="M1024.5 42.5833C1026.09 42.5854 1027.66 42.2737 1029.13 41.6664C1030.59 41.059 1031.92 40.1678 1033.04 39.0441C1034.17 37.9233 1035.06 36.5915 1035.67 35.1252C1036.27 33.6589 1036.59 32.0871 1036.58 30.5C1036.59 28.9129 1036.27 27.341 1035.67 25.8747C1035.06 24.4084 1034.17 23.0766 1033.04 21.9558C1031.92 20.8321 1030.59 19.9409 1029.13 19.3336C1027.66 18.7262 1026.09 18.4146 1024.5 18.4166C1022.91 18.4146 1021.34 18.7262 1019.87 19.3336C1018.41 19.941 1017.08 20.8321 1015.96 21.9558C1014.83 23.0766 1013.94 24.4084 1013.33 25.8747C1012.73 27.341 1012.41 28.9129 1012.42 30.5C1012.41 32.0871 1012.73 33.6589 1013.33 35.1252C1013.94 36.5915 1014.83 37.9233 1015.96 39.0441C1017.08 40.1678 1018.41 41.0589 1019.87 41.6663C1021.34 42.2737 1022.91 42.5853 1024.5 42.5833Z" fill="white" stroke="white" stroke-width="2.5" stroke-linejoin="round"/>
<path d="M1019.67 30.5L1023.29 34.125L1030.54 26.875" stroke="black" stroke-width="2.5" stroke-linecap="round" stroke-linejoin="round"/>
</mask>
<g mask="url(#mask3_221_158)">
<path d="M1010 16H1039V45H1010V16Z" fill="white"/>
</g>
<path d="M1063.81 38.016L1061.86 35.904C1061.38 36.0427 1060.85 36.112 1060.27 36.112C1059.24 36.112 1058.28 35.872 1057.41 35.392C1056.54 34.9013 1055.86 34.224 1055.34 33.36C1054.84 32.4853 1054.59 31.504 1054.59 30.416C1054.59 29.328 1054.84 28.352 1055.34 27.488C1055.86 26.624 1056.54 25.952 1057.41 25.472C1058.28 24.9813 1059.24 24.736 1060.27 24.736C1061.32 24.736 1062.27 24.9813 1063.14 25.472C1064.01 25.952 1064.7 26.624 1065.2 27.488C1065.7 28.352 1065.95 29.328 1065.95 30.416C1065.95 31.44 1065.73 32.368 1065.28 33.2C1064.84 34.0213 1064.23 34.6827 1063.46 35.184L1066.13 38.016H1063.81ZM1056.46 30.416C1056.46 31.2373 1056.62 31.9627 1056.94 32.592C1057.27 33.2107 1057.73 33.6907 1058.3 34.032C1058.88 34.3627 1059.54 34.528 1060.27 34.528C1061.01 34.528 1061.66 34.3627 1062.24 34.032C1062.82 33.6907 1063.26 33.2107 1063.58 32.592C1063.91 31.9627 1064.08 31.2373 1064.08 30.416C1064.08 29.5947 1063.91 28.8747 1063.58 28.256C1063.26 27.6373 1062.82 27.1627 1062.24 26.832C1061.66 26.5013 1061.01 26.336 1060.27 26.336C1059.54 26.336 1058.88 26.5013 1058.3 26.832C1057.73 27.1627 1057.27 27.6373 1056.94 28.256C1056.62 28.8747 1056.46 29.5947 1056.46 30.416ZM1075.78 27.184V36H1073.95V34.96C1073.67 35.3227 1073.29 35.6107 1072.82 35.824C1072.36 36.0267 1071.87 36.128 1071.35 36.128C1070.65 36.128 1070.03 35.984 1069.47 35.696C1068.93 35.408 1068.5 34.9813 1068.18 34.416C1067.87 33.8507 1067.71 33.168 1067.71 32.368V27.184H1069.52V32.096C1069.52 32.8853 1069.72 33.4933 1070.11 33.92C1070.51 34.336 1071.05 34.544 1071.73 34.544C1072.41 34.544 1072.95 34.336 1073.35 33.92C1073.75 33.4933 1073.95 32.8853 1073.95 32.096V27.184H1075.78ZM1086.26 31.376C1086.26 31.7067 1086.24 32.0053 1086.2 32.272H1079.46C1079.52 32.976 1079.78 33.5413 1080.25 33.968C1080.72 34.3947 1081.29 34.608 1081.98 34.608C1082.96 34.608 1083.65 34.1973 1084.06 33.376H1086.02C1085.76 34.1867 1085.27 34.8533 1084.57 35.376C1083.88 35.888 1083.01 36.144 1081.98 36.144C1081.13 36.144 1080.38 35.9573 1079.7 35.584C1079.04 35.2 1078.52 34.6667 1078.14 33.984C1077.76 33.2907 1077.58 32.4907 1077.58 31.584C1077.58 30.6773 1077.76 29.8827 1078.12 29.2C1078.49 28.5067 1079.01 27.9733 1079.67 27.6C1080.34 27.2267 1081.11 27.04 1081.98 27.04C1082.81 27.04 1083.55 27.2213 1084.2 27.584C1084.85 27.9467 1085.36 28.4587 1085.72 29.12C1086.08 29.7707 1086.26 30.5227 1086.26 31.376ZM1084.36 30.8C1084.35 30.128 1084.11 29.5893 1083.64 29.184C1083.17 28.7787 1082.59 28.576 1081.9 28.576C1081.27 28.576 1080.73 28.7787 1080.28 29.184C1079.83 29.5787 1079.57 30.1173 1079.48 30.8H1084.36ZM1091.26 36.144C1090.57 36.144 1089.94 36.0213 1089.39 35.776C1088.84 35.52 1088.41 35.1787 1088.09 34.752C1087.77 34.3147 1087.6 33.8293 1087.58 33.296H1089.47C1089.5 33.6693 1089.68 33.984 1090 34.24C1090.33 34.4853 1090.74 34.608 1091.23 34.608C1091.74 34.608 1092.13 34.512 1092.41 34.32C1092.7 34.1173 1092.84 33.8613 1092.84 33.552C1092.84 33.2213 1092.68 32.976 1092.36 32.816C1092.05 32.656 1091.56 32.48 1090.88 32.288C1090.21 32.1067 1089.68 31.9307 1089.26 31.76C1088.84 31.5893 1088.48 31.328 1088.17 30.976C1087.87 30.624 1087.72 30.16 1087.72 29.584C1087.72 29.1147 1087.86 28.688 1088.14 28.304C1088.42 27.9093 1088.81 27.6 1089.32 27.376C1089.85 27.152 1090.44 27.04 1091.12 27.04C1092.12 27.04 1092.92 27.296 1093.53 27.808C1094.15 28.3093 1094.48 28.9973 1094.52 29.872H1092.7C1092.67 29.4773 1092.51 29.1627 1092.22 28.928C1091.93 28.6933 1091.54 28.576 1091.05 28.576C1090.57 28.576 1090.2 28.6667 1089.95 28.848C1089.69 29.0293 1089.56 29.2693 1089.56 29.568C1089.56 29.8027 1089.65 30 1089.82 30.16C1089.99 30.32 1090.2 30.448 1090.44 30.544C1090.69 30.6293 1091.05 30.7413 1091.53 30.88C1092.17 31.0507 1092.69 31.2267 1093.1 31.408C1093.52 31.5787 1093.87 31.8347 1094.17 32.176C1094.47 32.5173 1094.62 32.9707 1094.64 33.536C1094.64 34.0373 1094.5 34.4853 1094.22 34.88C1093.94 35.2747 1093.55 35.584 1093.04 35.808C1092.53 36.032 1091.94 36.144 1091.26 36.144ZM1098.73 28.672V33.552C1098.73 33.8827 1098.81 34.1227 1098.96 34.272C1099.12 34.4107 1099.38 34.48 1099.76 34.48H1100.88V36H1099.44C1098.62 36 1097.99 35.808 1097.55 35.424C1097.11 35.04 1096.89 34.416 1096.89 33.552V28.672H1095.85V27.184H1096.89V24.992H1098.73V27.184H1100.88V28.672H1098.73ZM1103.49 26.016C1103.16 26.016 1102.88 25.904 1102.66 25.68C1102.43 25.456 1102.32 25.1787 1102.32 24.848C1102.32 24.5173 1102.43 24.24 1102.66 24.016C1102.88 23.792 1103.16 23.68 1103.49 23.68C1103.81 23.68 1104.08 23.792 1104.3 24.016C1104.53 24.24 1104.64 24.5173 1104.64 24.848C1104.64 25.1787 1104.53 25.456 1104.3 25.68C1104.08 25.904 1103.81 26.016 1103.49 26.016ZM1104.38 27.184V36H1102.56V27.184H1104.38ZM1110.6 36.144C1109.77 36.144 1109.02 35.9573 1108.35 35.584C1107.67 35.2 1107.15 34.6667 1106.76 33.984C1106.38 33.2907 1106.19 32.4907 1106.19 31.584C1106.19 30.688 1106.38 29.8933 1106.78 29.2C1107.17 28.5067 1107.71 27.9733 1108.39 27.6C1109.08 27.2267 1109.84 27.04 1110.68 27.04C1111.52 27.04 1112.29 27.2267 1112.97 27.6C1113.65 27.9733 1114.19 28.5067 1114.59 29.2C1114.98 29.8933 1115.18 30.688 1115.18 31.584C1115.18 32.48 1114.98 33.2747 1114.57 33.968C1114.16 34.6613 1113.61 35.2 1112.91 35.584C1112.21 35.9573 1111.44 36.144 1110.6 36.144ZM1110.6 34.56C1111.07 34.56 1111.51 34.448 1111.91 34.224C1112.33 34 1112.67 33.664 1112.92 33.216C1113.18 32.768 1113.31 32.224 1113.31 31.584C1113.31 30.944 1113.18 30.4053 1112.94 29.968C1112.69 29.52 1112.37 29.184 1111.96 28.96C1111.56 28.736 1111.12 28.624 1110.65 28.624C1110.18 28.624 1109.74 28.736 1109.34 28.96C1108.94 29.184 1108.63 29.52 1108.39 29.968C1108.16 30.4053 1108.04 30.944 1108.04 31.584C1108.04 32.5333 1108.28 33.2693 1108.76 33.792C1109.25 34.304 1109.87 34.56 1110.6 34.56ZM1121.43 27.04C1122.12 27.04 1122.74 27.184 1123.29 27.472C1123.84 27.76 1124.27 28.1867 1124.58 28.752C1124.89 29.3173 1125.05 30 1125.05 30.8V36H1123.24V31.072C1123.24 30.2827 1123.04 29.68 1122.65 29.264C1122.25 28.8373 1121.71 28.624 1121.03 28.624C1120.35 28.624 1119.8 28.8373 1119.4 29.264C1119 29.68 1118.81 30.2827 1118.81 31.072V36H1116.98V27.184H1118.81V28.192C1119.1 27.8293 1119.48 27.5467 1119.94 27.344C1120.41 27.1413 1120.91 27.04 1121.43 27.04Z" fill="white"/>
</svg>
