<svg width="36" height="37" viewBox="0 0 36 37" fill="none" xmlns="http://www.w3.org/2000/svg">
<path d="M19.346 0.447007C18.9573 0.156795 18.4851 0 18 0C17.5149 0 17.0427 0.156795 16.654 0.447007L0.71 12.349C-0.64 13.356 0.0730002 15.501 1.756 15.501H34.245C35.929 15.501 36.641 13.356 35.292 12.349L19.346 0.447007ZM18 10C17.4696 10 16.9609 9.78929 16.5858 9.41422C16.2107 9.03915 16 8.53044 16 8.00001C16 7.46957 16.2107 6.96087 16.5858 6.58579C16.9609 6.21072 17.4696 6.00001 18 6.00001C18.5304 6.00001 19.0391 6.21072 19.4142 6.58579C19.7893 6.96087 20 7.46957 20 8.00001C20 8.53044 19.7893 9.03915 19.4142 9.41422C19.0391 9.78929 18.5304 10 18 10ZM9.52469e-08 34.251C-0.000131243 33.5615 0.135567 32.8787 0.399345 32.2416C0.663124 31.6045 1.04982 31.0257 1.53734 30.5381C2.02486 30.0504 2.60366 29.6636 3.24068 29.3997C3.87771 29.1358 4.56048 29 5.25 29H30.75C33.65 29 36 31.35 36 34.25V35.75C36 36.44 35.44 36.999 34.75 36.999H1.25C1.08589 36.9991 0.923373 36.9669 0.771721 36.9042C0.62007 36.8415 0.482264 36.7495 0.366177 36.6335C0.250091 36.5175 0.158001 36.3798 0.0951701 36.2282C0.0323395 36.0766 4.26491e-08 35.9141 9.52469e-08 35.75V34.251ZM8 27H4V17.5H8V27ZM12 17.5V27H16V17.5H12ZM20 17.5V27H24V17.5H20ZM28 17.5V27H32V17.5H28Z" fill="#41806D"/>
</svg>
