<svg width="24" height="11" viewBox="0 0 24 11" fill="none" xmlns="http://www.w3.org/2000/svg">
<path d="M5.37 10.5L1.352 6.048V10.5H0.0780001V0.742H1.352V5.264L5.384 0.742H6.994L2.57 5.628L7.036 10.5H5.37ZM15.4589 6.37C15.4589 6.61267 15.4449 6.86933 15.4169 7.14H9.28486C9.33153 7.896 9.58819 8.48867 10.0549 8.918C10.5309 9.338 11.1049 9.548 11.7769 9.548C12.3275 9.548 12.7849 9.422 13.1489 9.17C13.5222 8.90867 13.7835 8.56333 13.9329 8.134H15.3049C15.0995 8.87133 14.6889 9.47333 14.0729 9.94C13.4569 10.3973 12.6915 10.626 11.7769 10.626C11.0489 10.626 10.3955 10.4627 9.81686 10.136C9.24753 9.80933 8.79953 9.34733 8.47286 8.75C8.14619 8.14333 7.98286 7.44333 7.98286 6.65C7.98286 5.85667 8.14153 5.16133 8.45886 4.564C8.77619 3.96667 9.21953 3.50933 9.78886 3.192C10.3675 2.86533 11.0302 2.702 11.7769 2.702C12.5049 2.702 13.1489 2.86067 13.7089 3.178C14.2689 3.49533 14.6982 3.934 14.9969 4.494C15.3049 5.04467 15.4589 5.67 15.4589 6.37ZM14.1429 6.104C14.1429 5.61867 14.0355 5.20333 13.8209 4.858C13.6062 4.50333 13.3122 4.23733 12.9389 4.06C12.5749 3.87333 12.1689 3.78 11.7209 3.78C11.0769 3.78 10.5262 3.98533 10.0689 4.396C9.62086 4.80667 9.36419 5.376 9.29886 6.104H14.1429ZM16.6645 6.65C16.6645 5.85667 16.8232 5.166 17.1405 4.578C17.4578 3.98067 17.8965 3.51867 18.4565 3.192C19.0258 2.86533 19.6745 2.702 20.4025 2.702C21.3452 2.702 22.1198 2.93067 22.7265 3.388C23.3425 3.84533 23.7485 4.48 23.9445 5.292H22.5725C22.4418 4.82533 22.1852 4.45667 21.8025 4.186C21.4292 3.91533 20.9625 3.78 20.4025 3.78C19.6745 3.78 19.0865 4.032 18.6385 4.536C18.1905 5.03067 17.9665 5.73533 17.9665 6.65C17.9665 7.574 18.1905 8.288 18.6385 8.792C19.0865 9.296 19.6745 9.548 20.4025 9.548C20.9625 9.548 21.4292 9.41733 21.8025 9.156C22.1758 8.89467 22.4325 8.52133 22.5725 8.036H23.9445C23.7392 8.82 23.3285 9.45 22.7125 9.926C22.0965 10.3927 21.3265 10.626 20.4025 10.626C19.6745 10.626 19.0258 10.4627 18.4565 10.136C17.8965 9.80933 17.4578 9.34733 17.1405 8.75C16.8232 8.15267 16.6645 7.45267 16.6645 6.65Z" fill="#797979"/>
</svg>
