<svg width="19" height="11" viewBox="0 0 19 11" fill="none" xmlns="http://www.w3.org/2000/svg">
<path d="M5.37 10.5L1.352 6.048V10.5H0.0780001V0.742H1.352V5.264L5.384 0.742H6.994L2.57 5.628L7.036 10.5H5.37ZM15.4589 6.37C15.4589 6.61267 15.4449 6.86933 15.4169 7.14H9.28486C9.33153 7.896 9.58819 8.48867 10.0549 8.918C10.5309 9.338 11.1049 9.548 11.7769 9.548C12.3275 9.548 12.7849 9.422 13.1489 9.17C13.5222 8.90867 13.7835 8.56333 13.9329 8.134H15.3049C15.0995 8.87133 14.6889 9.47333 14.0729 9.94C13.4569 10.3973 12.6915 10.626 11.7769 10.626C11.0489 10.626 10.3955 10.4627 9.81686 10.136C9.24753 9.80933 8.79953 9.34733 8.47286 8.75C8.14619 8.14333 7.98286 7.44333 7.98286 6.65C7.98286 5.85667 8.14153 5.16133 8.45886 4.564C8.77619 3.96667 9.21953 3.50933 9.78886 3.192C10.3675 2.86533 11.0302 2.702 11.7769 2.702C12.5049 2.702 13.1489 2.86067 13.7089 3.178C14.2689 3.49533 14.6982 3.934 14.9969 4.494C15.3049 5.04467 15.4589 5.67 15.4589 6.37ZM14.1429 6.104C14.1429 5.61867 14.0355 5.20333 13.8209 4.858C13.6062 4.50333 13.3122 4.23733 12.9389 4.06C12.5749 3.87333 12.1689 3.78 11.7209 3.78C11.0769 3.78 10.5262 3.98533 10.0689 4.396C9.62086 4.80667 9.36419 5.376 9.29886 6.104H14.1429ZM18.4145 0.14V10.5H17.1405V0.14H18.4145Z" fill="#797979"/>
</svg>
