<svg width="42" height="36" viewBox="0 0 42 36" fill="#41806D" class="gi gi-pelamar" xmlns="http://www.w3.org/2000/svg">
    <path d="M21 0.00585938C20.2129 0.00585936 19.4334 0.160899 18.7062 0.462125C17.979 0.763352 17.3182 1.20487 16.7616 1.76146C16.205 2.31806 15.7635 2.97883 15.4623 3.70605C15.161 4.43328 15.006 5.21272 15.006 5.99986C15.006 6.787 15.161 7.56644 15.4623 8.29366C15.7635 9.02089 16.205 9.68166 16.7616 10.2383C17.3182 10.7949 17.979 11.2364 18.7062 11.5376C19.4334 11.8388 20.2129 11.9939 21 11.9939C22.5897 11.9939 24.1143 11.3624 25.2384 10.2383C26.3625 9.11416 26.994 7.58957 26.994 5.99986C26.994 4.41015 26.3625 2.88555 25.2384 1.76146C24.1143 0.637368 22.5897 0.00585938 21 0.00585938ZM34.5 2.99986C33.3065 2.99986 32.1619 3.47396 31.318 4.31788C30.4741 5.16179 30 6.30639 30 7.49986C30 8.69333 30.4741 9.83793 31.318 10.6818C32.1619 11.5258 33.3065 11.9999 34.5 11.9999C35.6935 11.9999 36.8381 11.5258 37.682 10.6818C38.5259 9.83793 39 8.69333 39 7.49986C39 6.30639 38.5259 5.16179 37.682 4.31788C36.8381 3.47396 35.6935 2.99986 34.5 2.99986ZM7.5 2.99986C6.30653 2.99986 5.16193 3.47396 4.31802 4.31788C3.47411 5.16179 3 6.30639 3 7.49986C3 8.69333 3.47411 9.83793 4.31802 10.6818C5.16193 11.5258 6.30653 11.9999 7.5 11.9999C8.69347 11.9999 9.83807 11.5258 10.682 10.6818C11.5259 9.83793 12 8.69333 12 7.49986C12 6.30639 11.5259 5.16179 10.682 4.31788C9.83807 3.47396 8.69347 2.99986 7.5 2.99986ZM12 17.9789C12.0055 17.1869 12.3241 16.4292 12.8861 15.8711C13.4481 15.313 14.208 14.9998 15 14.9999H27C27.7956 14.9999 28.5587 15.3159 29.1213 15.8785C29.6839 16.4411 30 17.2042 30 17.9999V26.9999C29.9998 27.944 29.852 28.8823 29.562 29.7809C28.8977 31.817 27.5293 33.5496 25.7025 34.6676C23.8758 35.7855 21.7103 36.2157 19.5949 35.8807C17.4795 35.5457 15.5528 34.4676 14.1608 32.8399C12.7688 31.2122 12.0027 29.1416 12 26.9999V17.9999V17.9789ZM9 17.9999C9 16.9049 9.291 15.8819 9.804 14.9999H3C2.20435 14.9999 1.44129 15.3159 0.87868 15.8785C0.316071 16.4411 4.1524e-07 17.2042 4.1524e-07 17.9999V25.4999C-0.000408143 26.7278 0.300678 27.937 0.876819 29.0214C1.45296 30.1057 2.28653 31.032 3.30433 31.719C4.32212 32.4059 5.49301 32.8324 6.71417 32.9611C7.93533 33.0897 9.16939 32.9166 10.308 32.4569C9.44454 30.7666 8.99616 28.8949 9 26.9969V17.9999ZM33 17.9999V26.9999C33 28.9649 32.529 30.8189 31.692 32.4569C32.8306 32.9166 34.0647 33.0897 35.2858 32.9611C36.507 32.8324 37.6779 32.4059 38.6957 31.719C39.7135 31.032 40.547 30.1057 41.1232 29.0214C41.6993 27.937 42.0004 26.7278 42 25.4999V17.9999C42 17.2042 41.6839 16.4411 41.1213 15.8785C40.5587 15.3159 39.7957 14.9999 39 14.9999H32.196C32.706 15.8819 33 16.9049 33 17.9999Z"/>
</svg>
