<svg width="20" height="20" viewBox="0 0 20 20" fill="none" xmlns="http://www.w3.org/2000/svg">
<path d="M16.2495 1.875H13.1245C12.9587 1.875 12.7997 1.94085 12.6825 2.05806C12.5653 2.17527 12.4995 2.33424 12.4995 2.5C12.4995 2.66576 12.5653 2.82473 12.6825 2.94194C12.7997 3.05915 12.9587 3.125 13.1245 3.125H14.7409L12.776 5.08984C12.1991 4.55218 11.5032 4.15861 10.7451 3.94128C9.98698 3.72396 9.18823 3.68903 8.41406 3.83936C7.63989 3.9897 6.91226 4.32102 6.2906 4.80628C5.66894 5.29154 5.17088 5.91696 4.8371 6.63148C4.50332 7.34599 4.34329 8.12932 4.37007 8.9175C4.39686 9.70567 4.6097 10.4763 4.99122 11.1665C5.37273 11.8567 5.9121 12.4469 6.56527 12.8888C7.21844 13.3308 7.96688 13.6119 8.74947 13.7094V15H6.87447C6.70871 15 6.54974 15.0658 6.43253 15.1831C6.31532 15.3003 6.24947 15.4592 6.24947 15.625C6.24947 15.7908 6.31532 15.9497 6.43253 16.0669C6.54974 16.1842 6.70871 16.25 6.87447 16.25H8.74947V18.125C8.74947 18.2908 8.81532 18.4497 8.93253 18.5669C9.04974 18.6842 9.20871 18.75 9.37447 18.75C9.54023 18.75 9.6992 18.6842 9.81641 18.5669C9.93362 18.4497 9.99947 18.2908 9.99947 18.125V16.25H11.8745C12.0402 16.25 12.1992 16.1842 12.3164 16.0669C12.4336 15.9497 12.4995 15.7908 12.4995 15.625C12.4995 15.4592 12.4336 15.3003 12.3164 15.1831C12.1992 15.0658 12.0402 15 11.8745 15H9.99947V13.7094C10.8372 13.6047 11.6348 13.2894 12.3176 12.7928C13.0004 12.2963 13.5461 11.6347 13.9038 10.87C14.2616 10.1052 14.4195 9.26228 14.363 8.4199C14.3065 7.57753 14.0374 6.76324 13.5807 6.05313L15.6245 4.00859V5.625C15.6245 5.79076 15.6903 5.94973 15.8075 6.06694C15.9247 6.18415 16.0837 6.25 16.2495 6.25C16.4152 6.25 16.5742 6.18415 16.6914 6.06694C16.8086 5.94973 16.8745 5.79076 16.8745 5.625V2.5C16.8745 2.33424 16.8086 2.17527 16.6914 2.05806C16.5742 1.94085 16.4152 1.875 16.2495 1.875ZM9.37447 12.5C8.63279 12.5 7.90777 12.2801 7.29108 11.868C6.6744 11.456 6.19375 10.8703 5.90993 10.1851C5.6261 9.49984 5.55183 8.74584 5.69653 8.01841C5.84122 7.29098 6.19838 6.6228 6.72282 6.09835C7.24727 5.5739 7.91546 5.21675 8.64288 5.07206C9.37031 4.92736 10.1243 5.00162 10.8095 5.28545C11.4948 5.56928 12.0804 6.04993 12.4925 6.66661C12.9045 7.2833 13.1245 8.00832 13.1245 8.75C13.1234 9.74424 12.728 10.6975 12.025 11.4005C11.3219 12.1035 10.3687 12.499 9.37447 12.5Z" fill="#797979"/>
</svg>
