<svg width="20" height="20" viewBox="0 0 20 20" fill="none" xmlns="http://www.w3.org/2000/svg">
<path d="M10 6.66667C9.34073 6.66667 8.69626 6.86216 8.1481 7.22843C7.59994 7.59471 7.17269 8.1153 6.9204 8.72439C6.66811 9.33348 6.6021 10.0037 6.73072 10.6503C6.85933 11.2969 7.1768 11.8908 7.64298 12.357C8.10915 12.8232 8.7031 13.1407 9.3497 13.2693C9.9963 13.3979 10.6665 13.3319 11.2756 13.0796C11.8847 12.8273 12.4053 12.4001 12.7716 11.8519C13.1378 11.3037 13.3333 10.6593 13.3333 10C13.3333 9.11595 12.9821 8.2681 12.357 7.64298C11.7319 7.01786 10.8841 6.66667 10 6.66667ZM10 12C9.60444 12 9.21776 11.8827 8.88886 11.6629C8.55996 11.4432 8.30362 11.1308 8.15224 10.7654C8.00087 10.3999 7.96126 9.99778 8.03843 9.60982C8.1156 9.22186 8.30608 8.86549 8.58579 8.58579C8.86549 8.30608 9.22186 8.1156 9.60982 8.03843C9.99778 7.96126 10.3999 8.00087 10.7654 8.15224C11.1308 8.30362 11.4432 8.55996 11.6629 8.88886C11.8827 9.21776 12 9.60444 12 10C12 10.5304 11.7893 11.0391 11.4142 11.4142C11.0391 11.7893 10.5304 12 10 12ZM19.3333 4H0.666667C0.489856 4 0.320286 4.07024 0.195262 4.19526C0.0702379 4.32029 0 4.48986 0 4.66667V15.3333C0 15.5101 0.0702379 15.6797 0.195262 15.8047C0.320286 15.9298 0.489856 16 0.666667 16H19.3333C19.5101 16 19.6797 15.9298 19.8047 15.8047C19.9298 15.6797 20 15.5101 20 15.3333V4.66667C20 4.48986 19.9298 4.32029 19.8047 4.19526C19.6797 4.07024 19.5101 4 19.3333 4ZM15.4708 14.6667H4.52917C4.30534 13.9097 3.89567 13.2207 3.33749 12.6625C2.7793 12.1043 2.09033 11.6947 1.33333 11.4708V8.52917C2.09033 8.30534 2.7793 7.89567 3.33749 7.33749C3.89567 6.7793 4.30534 6.09033 4.52917 5.33333H15.4708C15.6947 6.09033 16.1043 6.7793 16.6625 7.33749C17.2207 7.89567 17.9097 8.30534 18.6667 8.52917V11.4708C17.9097 11.6947 17.2207 12.1043 16.6625 12.6625C16.1043 13.2207 15.6947 13.9097 15.4708 14.6667ZM18.6667 7.11417C17.867 6.77033 17.2297 6.13297 16.8858 5.33333H18.6667V7.11417ZM3.11417 5.33333C2.77033 6.13297 2.13297 6.77033 1.33333 7.11417V5.33333H3.11417ZM1.33333 12.8858C2.13297 13.2297 2.77033 13.867 3.11417 14.6667H1.33333V12.8858ZM16.8858 14.6667C17.2297 13.867 17.867 13.2297 18.6667 12.8858V14.6667H16.8858Z" fill="#797979"/>
</svg>
