<svg width="40" height="40" viewBox="0 0 40 40" fill="none" xmlns="http://www.w3.org/2000/svg">
<circle cx="20" cy="20" r="20" fill="#41806D"/>
<g clip-path="url(#clip0_1_27550)">
<path d="M20 18.0723C21.8769 18.0723 23.3984 16.5507 23.3984 14.6738C23.3984 12.7969 21.8769 11.2754 20 11.2754C18.1231 11.2754 16.6016 12.7969 16.6016 14.6738C16.6016 16.5507 18.1231 18.0723 20 18.0723Z" fill="white"/>
<path d="M26.875 18.0723C28.0615 18.0723 29.0234 17.1104 29.0234 15.9238C29.0234 14.7373 28.0615 13.7754 26.875 13.7754C25.6885 13.7754 24.7266 14.7373 24.7266 15.9238C24.7266 17.1104 25.6885 18.0723 26.875 18.0723Z" fill="white"/>
<path d="M13.125 18.0723C14.3115 18.0723 15.2734 17.1104 15.2734 15.9238C15.2734 14.7373 14.3115 13.7754 13.125 13.7754C11.9385 13.7754 10.9766 14.7373 10.9766 15.9238C10.9766 17.1104 11.9385 18.0723 13.125 18.0723Z" fill="white"/>
<path d="M15.2418 20.0017C14.3961 19.3088 13.6302 19.4005 12.6523 19.4005C11.1898 19.4005 10 20.5833 10 22.0368V26.3028C10 26.9341 10.5152 27.4474 11.1488 27.4474C13.8842 27.4474 13.5547 27.4969 13.5547 27.3294C13.5547 24.3065 13.1966 22.0897 15.2418 20.0017Z" fill="white"/>
<path d="M20.9302 19.4152C19.2222 19.2728 17.7377 19.4169 16.4571 20.4738C14.3143 22.1902 14.7267 24.5013 14.7267 27.3285C14.7267 28.0765 15.3353 28.6965 16.0946 28.6965C24.34 28.6965 24.6682 28.9625 25.1571 27.8797C25.3175 27.5135 25.2736 27.6299 25.2736 24.127C25.2736 21.3447 22.8645 19.4152 20.9302 19.4152Z" fill="white"/>
<path d="M27.3478 19.4004C26.3646 19.4004 25.6029 19.3096 24.7583 20.0016C26.7882 22.0741 26.4454 24.1397 26.4454 27.3293C26.4454 27.4978 26.1719 27.4473 28.8103 27.4473C29.4665 27.4473 30.0001 26.9156 30.0001 26.2621V22.0367C30.0001 20.5832 28.8103 19.4004 27.3478 19.4004Z" fill="white"/>
</g>
<defs>
<clipPath id="clip0_1_27550">
<rect width="20" height="20" fill="white" transform="translate(10 10)"/>
</clipPath>
</defs>
</svg>
