<svg width="24" height="24" viewBox="0 0 24 24" fill="none" xmlns="http://www.w3.org/2000/svg">
<path d="M8.5 17.5H15.5V16.5H8.5V17.5ZM8.5 13.5H15.5V12.5H8.5V13.5ZM6.615 21C6.155 21 5.771 20.846 5.463 20.538C5.15433 20.2293 5 19.845 5 19.385V4.615C5 4.155 5.15433 3.771 5.463 3.463C5.771 3.15433 6.155 3 6.615 3H14.5L19 7.5V19.385C19 19.845 18.846 20.229 18.538 20.537C18.2293 20.8457 17.845 21 17.385 21H6.615ZM14 8V4H6.615C6.46167 4 6.32067 4.064 6.192 4.192C6.064 4.32067 6 4.46167 6 4.615V19.385C6 19.5383 6.064 19.6793 6.192 19.808C6.32067 19.936 6.46167 20 6.615 20H17.385C17.5383 20 17.6793 19.936 17.808 19.808C17.936 19.6793 18 19.5383 18 19.385V8H14Z" fill="#797979"/>
</svg>
