<svg width="32" height="32" viewBox="0 0 32 32" fill="none" xmlns="http://www.w3.org/2000/svg">
<circle cx="16" cy="16" r="16" fill="#DCF7E1"/>
<path fill-rule="evenodd" clip-rule="evenodd" d="M17.6875 8.875C17.6875 8.82527 17.6677 8.77758 17.6326 8.74242C17.5974 8.70725 17.5497 8.6875 17.5 8.6875H12.25C11.703 8.6875 11.1784 8.9048 10.7916 9.29159C10.4048 9.67839 10.1875 10.203 10.1875 10.75V21.25C10.1875 21.797 10.4048 22.3216 10.7916 22.7084C11.1784 23.0952 11.703 23.3125 12.25 23.3125H19.75C20.297 23.3125 20.8216 23.0952 21.2084 22.7084C21.5952 22.3216 21.8125 21.797 21.8125 21.25V13.8603C21.8125 13.8105 21.7927 13.7628 21.7576 13.7277C21.7224 13.6925 21.6747 13.6728 21.625 13.6728H18.25C18.1008 13.6727 17.9577 13.6135 17.8523 13.508C17.7468 13.4025 17.6875 13.2594 17.6875 13.1103V8.875ZM18.25 16.1875C18.3992 16.1875 18.5423 16.2468 18.6477 16.3523C18.7532 16.4577 18.8125 16.6008 18.8125 16.75C18.8125 16.8992 18.7532 17.0423 18.6477 17.1477C18.5423 17.2532 18.3992 17.3125 18.25 17.3125H13.75C13.6008 17.3125 13.4577 17.2532 13.3523 17.1477C13.2468 17.0423 13.1875 16.8992 13.1875 16.75C13.1875 16.6008 13.2468 16.4577 13.3523 16.3523C13.4577 16.2468 13.6008 16.1875 13.75 16.1875H18.25ZM18.25 19.1875C18.3992 19.1875 18.5423 19.2468 18.6477 19.3523C18.7532 19.4577 18.8125 19.6008 18.8125 19.75C18.8125 19.8992 18.7532 20.0423 18.6477 20.1477C18.5423 20.2532 18.3992 20.3125 18.25 20.3125H13.75C13.6008 20.3125 13.4577 20.2532 13.3523 20.1477C13.2468 20.0423 13.1875 19.8992 13.1875 19.75C13.1875 19.6008 13.2468 19.4577 13.3523 19.3523C13.4577 19.2468 13.6008 19.1875 13.75 19.1875H18.25Z" fill="#41806D"/>
<path d="M18.8125 9.118C18.8125 8.98 18.9573 8.89225 19.0645 8.9785C19.1553 9.052 19.237 9.1375 19.3068 9.235L21.5665 12.3827C21.6175 12.4547 21.562 12.5477 21.4735 12.5477H19C18.9503 12.5477 18.9026 12.528 18.8674 12.4928C18.8323 12.4577 18.8125 12.41 18.8125 12.3602V9.118Z" fill="#41806D"/>
</svg>
