<svg width="32" height="32" viewBox="0 0 32 32" fill="none" xmlns="http://www.w3.org/2000/svg">
<circle cx="16" cy="16" r="16" fill="#DCF7E1"/>
<path fill-rule="evenodd" clip-rule="evenodd" d="M11.5 11.5V10.75C11.5 9.50736 12.5074 8.5 13.75 8.5H21.25C22.4927 8.5 23.5 9.50736 23.5 10.75V18.25C23.5 19.4927 22.4927 20.5 21.25 20.5H20.5V21.25C20.5 22.4927 19.4927 23.5 18.25 23.5H10.75C9.50736 23.5 8.5 22.4927 8.5 21.25V13.75C8.5 12.5074 9.50736 11.5 10.75 11.5H11.5ZM13 11.5V10.75C13 10.3358 13.3358 10 13.75 10H21.25C21.6642 10 22 10.3358 22 10.75V18.25C22 18.6642 21.6642 19 21.25 19H20.5V13.75C20.5 12.5074 19.4927 11.5 18.25 11.5H13Z" fill="#41806D"/>
</svg>
