<svg width="24" height="24" viewBox="0 0 24 24" fill="none" xmlns="http://www.w3.org/2000/svg">
<path fill-rule="evenodd" clip-rule="evenodd" d="M6.90002 2.40039C7.13872 2.40039 7.36764 2.49521 7.53642 2.66399C7.7052 2.83278 7.80002 3.0617 7.80002 3.30039V4.80039H16.2V3.30039C16.2 3.0617 16.2948 2.83278 16.4636 2.66399C16.6324 2.49521 16.8613 2.40039 17.1 2.40039C17.3387 2.40039 17.5676 2.49521 17.7364 2.66399C17.9052 2.83278 18 3.0617 18 3.30039V4.80039H18.3C19.1752 4.80039 20.0146 5.14807 20.6335 5.76694C21.2523 6.38581 21.6 7.22518 21.6 8.10039V18.3004C21.6 19.1756 21.2523 20.015 20.6335 20.6338C20.0146 21.2527 19.1752 21.6004 18.3 21.6004H5.70002C4.82481 21.6004 3.98544 21.2527 3.36657 20.6338C2.7477 20.015 2.40002 19.1756 2.40002 18.3004V8.10039C2.40002 7.22518 2.7477 6.38581 3.36657 5.76694C3.98544 5.14807 4.82481 4.80039 5.70002 4.80039H6.00002V3.30039C6.00002 3.0617 6.09485 2.83278 6.26363 2.66399C6.43241 2.49521 6.66133 2.40039 6.90002 2.40039ZM5.70002 9.00039C4.87202 9.00039 4.20002 9.67239 4.20002 10.5004V18.3004C4.20002 19.1284 4.87202 19.8004 5.70002 19.8004H18.3C19.128 19.8004 19.8 19.1284 19.8 18.3004V10.5004C19.8 9.67239 19.128 9.00039 18.3 9.00039H5.70002Z" fill="white"/>
</svg>
