<svg width="24" height="24" viewBox="0 0 24 24" fill="none" xmlns="http://www.w3.org/2000/svg">
<path d="M15.4444 8.44444V5.77778H8.33333V8.44444H6.55556V4H17.2222V8.44444H15.4444ZM17.2222 12.4444C17.4741 12.4444 17.6853 12.3591 17.856 12.1884C18.0267 12.0178 18.1117 11.8068 18.1111 11.5556C18.1111 11.3037 18.0258 11.0927 17.8551 10.9227C17.6844 10.7526 17.4735 10.6673 17.2222 10.6667C16.9704 10.6667 16.7594 10.752 16.5893 10.9227C16.4193 11.0933 16.3339 11.3043 16.3333 11.5556C16.3333 11.8074 16.4187 12.0187 16.5893 12.1893C16.76 12.36 16.971 12.445 17.2222 12.4444ZM15.4444 18.2222V14.6667H8.33333V18.2222H15.4444ZM17.2222 20H6.55556V16.4444H3V11.1111C3 10.3556 3.25926 9.72237 3.77778 9.21156C4.2963 8.70074 4.92593 8.44504 5.66667 8.44444H18.1111C18.8667 8.44444 19.5001 8.70015 20.0116 9.21156C20.523 9.72296 20.7784 10.3561 20.7778 11.1111V16.4444H17.2222V20ZM19 14.6667V11.1111C19 10.8593 18.9147 10.6483 18.744 10.4782C18.5733 10.3081 18.3624 10.2228 18.1111 10.2222H5.66667C5.41481 10.2222 5.20385 10.3076 5.03378 10.4782C4.8637 10.6489 4.77837 10.8599 4.77778 11.1111V14.6667H6.55556V12.8889H17.2222V14.6667H19Z" fill="#8C8C8C"/>
</svg>
