<svg width="20" height="20" viewBox="0 0 20 20" fill="none" xmlns="http://www.w3.org/2000/svg">
<path d="M9.99999 9.58366C9.44746 9.58366 8.91755 9.36417 8.52685 8.97346C8.13615 8.58276 7.91666 8.05286 7.91666 7.50033C7.91666 6.94779 8.13615 6.41789 8.52685 6.02719C8.91755 5.63649 9.44746 5.41699 9.99999 5.41699C10.5525 5.41699 11.0824 5.63649 11.4731 6.02719C11.8638 6.41789 12.0833 6.94779 12.0833 7.50033C12.0833 7.77391 12.0294 8.04482 11.9247 8.29758C11.82 8.55034 11.6666 8.78001 11.4731 8.97346C11.2797 9.16692 11.05 9.32038 10.7972 9.42507C10.5445 9.52977 10.2736 9.58366 9.99999 9.58366ZM9.99999 1.66699C8.45289 1.66699 6.96916 2.28157 5.8752 3.37554C4.78124 4.4695 4.16666 5.95323 4.16666 7.50033C4.16666 11.8753 9.99999 18.3337 9.99999 18.3337C9.99999 18.3337 15.8333 11.8753 15.8333 7.50033C15.8333 5.95323 15.2187 4.4695 14.1248 3.37554C13.0308 2.28157 11.5471 1.66699 9.99999 1.66699Z" fill="#A6A6A6"/>
</svg>
