<svg width="14" height="14" viewBox="0 0 14 14" fill="none" xmlns="http://www.w3.org/2000/svg">
<path fill-rule="evenodd" clip-rule="evenodd" d="M3.60028 1.18728C5.85303 0.937574 8.12647 0.937574 10.3792 1.18728C11.6265 1.32708 12.6328 2.30933 12.7792 3.561C13.0464 5.84587 13.0464 8.1541 12.7792 10.439C12.6328 11.6906 11.6265 12.6729 10.3792 12.8127C8.12648 13.0624 5.85303 13.0624 3.60028 12.8127C2.35299 12.6729 1.3467 11.6906 1.20035 10.439C0.933136 8.15434 0.933136 5.84635 1.20035 3.56173C1.27438 2.95364 1.55159 2.38837 1.98705 1.95753C2.42251 1.52669 2.99071 1.25554 3.59955 1.18801M6.98975 3.3644C7.13459 3.3644 7.27349 3.42194 7.3759 3.52435C7.47832 3.62677 7.53585 3.76567 7.53585 3.9105V6.45388H10.0792C10.2241 6.45388 10.363 6.51142 10.4654 6.61383C10.5678 6.71624 10.6253 6.85515 10.6253 6.99998C10.6253 7.14482 10.5678 7.28372 10.4654 7.38613C10.363 7.48855 10.2241 7.54608 10.0792 7.54608H7.53585V10.0895C7.53585 10.2343 7.47832 10.3732 7.3759 10.4756C7.27349 10.578 7.13459 10.6356 6.98975 10.6356C6.84492 10.6356 6.70601 10.578 6.6036 10.4756C6.50119 10.3732 6.44365 10.2343 6.44365 10.0895V7.54608H3.90027C3.75544 7.54608 3.61654 7.48855 3.51412 7.38613C3.41171 7.28372 3.35417 7.14482 3.35417 6.99998C3.35417 6.85515 3.41171 6.71624 3.51412 6.61383C3.61654 6.51142 3.75544 6.45388 3.90027 6.45388H6.44365V3.9105C6.44365 3.76567 6.50119 3.62677 6.6036 3.52435C6.70601 3.42194 6.84492 3.3644 6.98975 3.3644Z" fill="white"/>
</svg>
