<svg width="20" height="20" viewBox="0 0 20 20" fill="none" xmlns="http://www.w3.org/2000/svg">
<path d="M17.9996 4.44007H13.6276V3.37607C13.6276 3.00477 13.4801 2.64868 13.2176 2.38612C12.955 2.12357 12.5989 1.97607 12.2276 1.97607H7.77161C7.40031 1.97607 7.04421 2.12357 6.78166 2.38612C6.51911 2.64868 6.37161 3.00477 6.37161 3.37607V4.44007H1.99961C1.62831 4.44007 1.27221 4.58757 1.00966 4.85012C0.747109 5.11268 0.599609 5.46877 0.599609 5.84007V16.6241C0.599609 16.9954 0.747109 17.3515 1.00966 17.614C1.27221 17.8766 1.62831 18.0241 1.99961 18.0241H17.9996C18.3709 18.0241 18.727 17.8766 18.9896 17.614C19.2521 17.3515 19.3996 16.9954 19.3996 16.6241V5.84007C19.3996 5.46877 19.2521 5.11268 18.9896 4.85012C18.727 4.58757 18.3709 4.44007 17.9996 4.44007ZM7.17161 3.37607C7.17161 3.21694 7.23482 3.06433 7.34734 2.95181C7.45987 2.83929 7.61248 2.77607 7.77161 2.77607H12.2276C12.3867 2.77607 12.5394 2.83929 12.6519 2.95181C12.7644 3.06433 12.8276 3.21694 12.8276 3.37607V4.44007H7.17161V3.37607ZM1.39961 5.84007C1.39961 5.68094 1.46282 5.52833 1.57535 5.41581C1.68787 5.30329 1.84048 5.24007 1.99961 5.24007H17.9996C18.1587 5.24007 18.3114 5.30329 18.4239 5.41581C18.5364 5.52833 18.5996 5.68094 18.5996 5.84007V8.38807C18.5986 9.08368 18.3218 9.75049 17.8299 10.2424C17.338 10.7342 16.6712 11.011 15.9756 11.0121H11.6416V9.77607C11.6416 9.66999 11.5995 9.56825 11.5245 9.49323C11.4494 9.41822 11.3477 9.37607 11.2416 9.37607H8.75761C8.65152 9.37607 8.54978 9.41822 8.47477 9.49323C8.39975 9.56825 8.35761 9.66999 8.35761 9.77607V11.0121H4.02361C3.32801 11.011 2.6612 10.7342 2.16933 10.2424C1.67746 9.75049 1.40067 9.08368 1.39961 8.38807V5.84007ZM10.8416 10.1761V12.6481H9.15761V10.1761H10.8416ZM18.5996 16.6241C18.5996 16.7832 18.5364 16.9358 18.4239 17.0483C18.3114 17.1609 18.1587 17.2241 17.9996 17.2241H1.99961C1.84048 17.2241 1.68787 17.1609 1.57535 17.0483C1.46282 16.9358 1.39961 16.7832 1.39961 16.6241V10.5841C1.72037 10.9684 2.12164 11.2776 2.57507 11.4898C3.02849 11.702 3.52299 11.812 4.02361 11.8121H8.35761V13.0481C8.35761 13.1542 8.39975 13.2559 8.47477 13.3309C8.54978 13.4059 8.65152 13.4481 8.75761 13.4481H11.2416C11.3477 13.4481 11.4494 13.4059 11.5245 13.3309C11.5995 13.2559 11.6416 13.1542 11.6416 13.0481V11.8121H15.9756C16.4762 11.812 16.9707 11.702 17.4242 11.4898C17.8776 11.2776 18.2788 10.9684 18.5996 10.5841V16.6241Z" fill="#797979"/>
</svg>
