<svg width="20" height="21" viewBox="0 0 20 21" fill="none" xmlns="http://www.w3.org/2000/svg">
<g clip-path="url(#clip0_161_5053)">
<path d="M9.99935 2.16675C6.77435 2.16675 4.16602 4.77508 4.16602 8.00008C4.16602 12.3751 9.99935 18.8334 9.99935 18.8334C9.99935 18.8334 15.8327 12.3751 15.8327 8.00008C15.8327 4.77508 13.2243 2.16675 9.99935 2.16675ZM5.83268 8.00008C5.83268 5.70008 7.69935 3.83341 9.99935 3.83341C12.2993 3.83341 14.166 5.70008 14.166 8.00008C14.166 10.4001 11.766 13.9917 9.99935 16.2334C8.26602 14.0084 5.83268 10.3751 5.83268 8.00008Z" fill="#797979"/>
<path d="M9.99935 10.0834C11.1499 10.0834 12.0827 9.15067 12.0827 8.00008C12.0827 6.84949 11.1499 5.91675 9.99935 5.91675C8.84876 5.91675 7.91602 6.84949 7.91602 8.00008C7.91602 9.15067 8.84876 10.0834 9.99935 10.0834Z" fill="#797979"/>
</g>
<defs>
<clipPath id="clip0_161_5053">
<rect width="20" height="20" fill="white" transform="translate(0 0.5)"/>
</clipPath>
</defs>
</svg>
