<svg width="20" height="21" viewBox="0 0 20 21" fill="none" xmlns="http://www.w3.org/2000/svg">
<path d="M16.9507 8.26661L5.28403 2.43328C4.8236 2.20412 4.30371 2.12254 3.79522 2.19965C3.28674 2.27677 2.81441 2.50884 2.44264 2.86421C2.07086 3.21958 1.81774 3.68096 1.71777 4.18545C1.61781 4.68994 1.67586 5.21299 1.88403 5.68328L3.88403 10.1583C3.92941 10.2665 3.95278 10.3826 3.95278 10.4999C3.95278 10.6173 3.92941 10.7334 3.88403 10.8416L1.88403 15.3166C1.71461 15.6972 1.64299 16.1141 1.67568 16.5294C1.70836 16.9447 1.84431 17.3453 2.07118 17.6947C2.29805 18.0441 2.60863 18.3313 2.97471 18.5301C3.34079 18.729 3.75076 18.8332 4.16736 18.8333C4.55755 18.8294 4.94194 18.7383 5.29236 18.5666L16.959 12.7333C17.3729 12.5251 17.7207 12.206 17.9638 11.8117C18.2068 11.4173 18.3355 10.9632 18.3355 10.4999C18.3355 10.0367 18.2068 9.58257 17.9638 9.18821C17.7207 8.79386 17.3729 8.47479 16.959 8.26661H16.9507ZM16.209 11.2416L4.54236 17.0749C4.38916 17.1485 4.21714 17.1735 4.04935 17.1465C3.88156 17.1195 3.72603 17.0419 3.60362 16.924C3.48121 16.8061 3.39776 16.6536 3.36447 16.487C3.33118 16.3203 3.34963 16.1475 3.41736 15.9916L5.40903 11.5166C5.43481 11.4569 5.45707 11.3956 5.47569 11.3333H11.2174C11.4384 11.3333 11.6503 11.2455 11.8066 11.0892C11.9629 10.9329 12.0507 10.721 12.0507 10.4999C12.0507 10.2789 11.9629 10.067 11.8066 9.91069C11.6503 9.75441 11.4384 9.66661 11.2174 9.66661H5.47569C5.45707 9.60425 5.43481 9.54303 5.40903 9.48328L3.41736 5.00828C3.34963 4.85241 3.33118 4.67957 3.36447 4.51292C3.39776 4.34627 3.48121 4.19378 3.60362 4.0759C3.72603 3.95802 3.88156 3.88039 4.04935 3.8534C4.21714 3.82642 4.38916 3.85139 4.54236 3.92494L16.209 9.75828C16.3455 9.82821 16.4601 9.93446 16.5401 10.0653C16.6201 10.1962 16.6624 10.3466 16.6624 10.4999C16.6624 10.6533 16.6201 10.8037 16.5401 10.9346C16.4601 11.0654 16.3455 11.1717 16.209 11.2416Z" fill="#797979"/>
</svg>
