<svg width="16" height="10" viewBox="0 0 16 10" fill="none" xmlns="http://www.w3.org/2000/svg">
<path d="M7.084 0.242V1.278H4.424V10H3.15V1.278H0.476V0.242H7.084ZM13.5382 4.974C13.8929 5.03 14.2149 5.17467 14.5042 5.408C14.8029 5.64133 15.0362 5.93067 15.2042 6.276C15.3816 6.62133 15.4702 6.99 15.4702 7.382C15.4702 7.87667 15.3442 8.32467 15.0922 8.726C14.8402 9.118 14.4716 9.43067 13.9862 9.664C13.5102 9.888 12.9456 10 12.2922 10H8.65222V0.242H12.1522C12.8149 0.242 13.3796 0.354 13.8462 0.577999C14.3129 0.792666 14.6629 1.08667 14.8962 1.46C15.1296 1.83333 15.2462 2.25333 15.2462 2.72C15.2462 3.29867 15.0876 3.77933 14.7702 4.162C14.4622 4.53533 14.0516 4.806 13.5382 4.974ZM9.92622 4.456H12.0682C12.6656 4.456 13.1276 4.316 13.4542 4.036C13.7809 3.756 13.9442 3.36867 13.9442 2.874C13.9442 2.37933 13.7809 1.992 13.4542 1.712C13.1276 1.432 12.6562 1.292 12.0402 1.292H9.92622V4.456ZM12.1802 8.95C12.8149 8.95 13.3096 8.80067 13.6642 8.502C14.0189 8.20333 14.1962 7.788 14.1962 7.256C14.1962 6.71467 14.0096 6.29 13.6362 5.982C13.2629 5.66467 12.7636 5.506 12.1382 5.506H9.92622V8.95H12.1802Z" fill="#797979"/>
</svg>
