<svg width="20" height="18" viewBox="0 0 20 18" fill="none" xmlns="http://www.w3.org/2000/svg">
<g clip-path="url(#clip0_161_5018)">
<path d="M20 2.82421C19.2511 3.15599 18.4567 3.37377 17.6433 3.4703C18.4905 2.96249 19.1411 2.15835 19.4474 1.20022C18.642 1.67818 17.7608 2.01493 16.8419 2.19593C16.0934 1.39851 15.027 0.900146 13.8468 0.900146C11.5807 0.900146 9.74344 2.73733 9.74344 5.00327C9.74344 5.32491 9.77977 5.63804 9.84969 5.93843C6.43953 5.76726 3.41609 4.13374 1.39227 1.65124C1.03914 2.25726 0.836797 2.96218 0.836797 3.71405C0.836797 5.13765 1.56125 6.39351 2.66219 7.12937C2.01059 7.10896 1.37332 6.93297 0.803594 6.61608C0.803359 6.63327 0.803359 6.65046 0.803359 6.66772C0.803359 8.65577 2.21773 10.3142 4.09477 10.6912C3.49054 10.8555 2.85674 10.8795 2.2418 10.7615C2.76391 12.3916 4.2793 13.5779 6.07477 13.6111C4.67047 14.7116 2.90117 15.3676 0.978828 15.3676C0.647578 15.3676 0.321016 15.3481 0 15.3102C1.81586 16.4744 3.97266 17.1537 6.28984 17.1537C13.8373 17.1537 17.9644 10.9013 17.9644 5.47913C17.9644 5.30116 17.9605 5.12421 17.9525 4.94827C18.7558 4.36756 19.4492 3.64828 20 2.82421Z" fill="#55ACEE"/>
</g>
<defs>
<clipPath id="clip0_161_5018">
<rect width="20" height="16.3281" fill="white" transform="translate(0 0.835938)"/>
</clipPath>
</defs>
</svg>
